<svg xmlns="http://www.w3.org/2000/svg" xmlns:xlink="http://www.w3.org/1999/xlink" width="500" zoomAndPan="magnify" viewBox="0 0 375 374.999991" height="500" preserveAspectRatio="xMidYMid meet" version="1.0"><defs><clipPath id="10141bad7a"><path d="M 8.949219 170 L 42 170 L 42 224 L 8.949219 224 Z M 8.949219 170 " clip-rule="nonzero"/></clipPath><clipPath id="15770d3344"><path d="M 86 18.121094 L 123 18.121094 L 123 68 L 86 68 Z M 86 18.121094 " clip-rule="nonzero"/></clipPath><clipPath id="59aca072f6"><path d="M 333 170 L 365.828125 170 L 365.828125 224 L 333 224 Z M 333 170 " clip-rule="nonzero"/></clipPath><clipPath id="09585429b8"><path d="M 251 18.121094 L 289 18.121094 L 289 68 L 251 68 Z M 251 18.121094 " clip-rule="nonzero"/></clipPath></defs><path fill="#ffffff" d="M 113.9375 50.058594 C 113.867188 49.929688 113.820312 49.792969 113.789062 49.664062 C 98.308594 57.703125 84.316406 68.582031 72.59375 81.519531 C 60.875 94.457031 51.433594 109.492188 44.984375 125.75 C 41.757812 133.875 39.261719 142.296875 37.523438 150.871094 L 36.914062 154.09375 L 36.613281 155.707031 C 36.507812 156.242188 36.449219 156.785156 36.363281 157.328125 L 35.894531 160.574219 L 35.660156 162.199219 C 35.582031 162.738281 35.546875 163.285156 35.488281 163.828125 L 34.925781 169.546875 L 34.882812 170.363281 C 34.777344 172.550781 34.652344 174.738281 34.566406 176.921875 C 34.136719 194.429688 36.878906 212.019531 42.617188 228.582031 C 48.347656 245.15625 57.066406 260.691406 68.214844 274.246094 C 79.355469 287.8125 92.929688 299.390625 108.125 308.238281 C 115.71875 312.664062 123.710938 316.410156 131.976562 319.421875 C 134.058594 320.125 136.136719 320.851562 138.230469 321.535156 L 144.566406 323.371094 L 150.984375 324.910156 C 152.058594 325.167969 153.066406 325.375 154.109375 325.632812 C 155.140625 325.898438 156.167969 326.15625 157.183594 326.457031 C 165.347656 328.804688 173.140625 332.414062 180.117188 337.214844 C 183.574219 339.625 186.9375 342.3125 189.949219 345.222656 C 191.453125 346.683594 192.867188 348.210938 194.085938 349.828125 C 195.304688 351.433594 196.316406 353.160156 196.816406 354.863281 C 196.855469 355.015625 196.933594 355.152344 196.980469 355.285156 C 197.027344 355.414062 197.089844 355.539062 197.164062 355.660156 C 197.234375 355.777344 197.320312 355.890625 197.410156 356 C 197.503906 356.105469 197.574219 356.203125 197.671875 356.292969 C 198.046875 356.660156 198.550781 356.945312 199.089844 356.953125 C 199.625 356.960938 200.089844 356.648438 200.40625 356.050781 C 200.476562 355.898438 200.5625 355.730469 200.597656 355.558594 C 200.632812 355.382812 200.660156 355.195312 200.671875 355 C 200.6875 354.804688 200.683594 354.597656 200.667969 354.386719 C 200.652344 354.175781 200.585938 353.976562 200.523438 353.769531 C 199.789062 351.363281 198.523438 349.34375 197.128906 347.523438 C 195.730469 345.699219 194.179688 344.054688 192.5625 342.507812 C 189.320312 339.425781 185.859375 336.703125 182.1875 334.1875 C 174.835938 329.203125 166.660156 325.5 158.136719 323.121094 C 157.074219 322.816406 156 322.554688 154.929688 322.285156 C 153.859375 322.03125 152.75 321.808594 151.707031 321.566406 L 145.425781 320.113281 L 139.21875 318.367188 C 137.167969 317.71875 135.136719 317.015625 133.09375 316.34375 C 124.988281 313.464844 117.140625 309.863281 109.671875 305.582031 C 94.730469 297.039062 81.328125 285.792969 70.289062 272.558594 C 59.238281 259.332031 50.539062 244.121094 44.773438 227.855469 C 38.992188 211.59375 36.148438 194.28125 36.441406 176.992188 C 36.507812 174.835938 36.617188 172.675781 36.703125 170.515625 L 36.738281 169.707031 L 36.8125 168.902344 L 36.957031 167.285156 L 37.25 164.058594 C 37.304688 163.519531 37.335938 162.980469 37.40625 162.441406 L 37.625 160.839844 L 38.066406 157.625 C 38.144531 157.089844 38.203125 156.554688 38.296875 156.019531 L 38.585938 154.421875 L 39.164062 151.230469 C 40.8125 142.742188 43.214844 134.398438 46.34375 126.328125 C 52.601562 110.1875 61.835938 95.207031 73.363281 82.273438 C 84.898438 69.34375 98.722656 58.417969 114.058594 50.289062 L 113.9375 50.058594 " fill-opacity="1" fill-rule="nonzero"/><path fill="#ffffff" d="M 114.582031 48.386719 C 115.46875 47.21875 116.355469 46.023438 117.304688 44.847656 C 118.273438 43.714844 119.316406 42.621094 120.480469 41.601562 C 120.988281 41.15625 121.507812 40.726562 122.03125 40.304688 C 122.5625 39.890625 123.113281 39.511719 123.660156 39.136719 C 124.761719 38.386719 125.890625 37.679688 127.046875 37.019531 C 127.621094 36.675781 128.21875 36.394531 128.8125 36.105469 C 129.410156 35.824219 130.011719 35.550781 130.621094 35.289062 C 131.230469 35.027344 131.84375 34.777344 132.460938 34.535156 L 133.386719 34.183594 C 133.699219 34.070312 134.015625 33.980469 134.332031 33.882812 C 135.597656 33.496094 136.875 33.152344 138.167969 32.851562 C 138.816406 32.703125 139.453125 32.539062 140.113281 32.445312 C 140.769531 32.339844 141.429688 32.246094 142.089844 32.160156 C 143.410156 31.992188 144.738281 31.867188 146.066406 31.773438 C 147.40625 31.734375 148.75 31.738281 150.09375 31.773438 C 150.800781 31.796875 151.503906 31.820312 152.199219 31.863281 C 152.898438 31.886719 153.601562 31.988281 154.289062 32.066406 C 155.671875 32.230469 157.023438 32.433594 158.347656 32.691406 C 158.675781 32.753906 159.003906 32.816406 159.332031 32.890625 C 159.65625 32.972656 159.984375 33.0625 160.3125 33.144531 C 160.960938 33.324219 161.597656 33.515625 162.226562 33.714844 C 163.484375 34.121094 164.699219 34.582031 165.863281 35.105469 C 165.726562 35.222656 164.214844 35.769531 163.65625 36.011719 C 162.371094 36.574219 161.097656 37.125 159.839844 37.699219 L 156.121094 39.554688 L 154.28125 40.476562 C 153.679688 40.804688 153.074219 41.136719 152.472656 41.464844 C 151.269531 42.113281 150.066406 42.757812 148.875 43.402344 C 142.496094 46.949219 136.109375 49.777344 128.898438 51.367188 C 128.265625 51.5 127.632812 51.605469 127.011719 51.714844 C 126.398438 51.835938 125.785156 51.933594 125.179688 52.015625 C 123.964844 52.175781 122.761719 52.246094 121.574219 52.222656 C 119.21875 52.214844 116.941406 51.871094 114.71875 50.988281 C 114.171875 50.757812 113.609375 50.503906 113.058594 50.285156 C 113.554688 49.640625 114.066406 49.023438 114.582031 48.386719 " fill-opacity="1" fill-rule="nonzero"/><path fill="#ffffff" d="M 161.53125 330.292969 C 160.730469 329.921875 159.878906 329.632812 159.03125 329.363281 C 156.511719 328.527344 153.929688 327.9375 151.347656 327.722656 C 151.007812 327.6875 150.664062 327.65625 150.324219 327.621094 C 149.980469 327.59375 149.628906 327.5625 149.277344 327.53125 C 148.578125 327.480469 147.875 327.441406 147.175781 327.425781 C 146.472656 327.402344 145.761719 327.402344 145.054688 327.417969 C 144.351562 327.425781 143.636719 327.480469 142.933594 327.488281 C 141.230469 327.539062 139.5625 327.675781 137.925781 327.882812 C 137.109375 327.988281 136.292969 328.128906 135.496094 328.246094 C 134.703125 328.355469 133.914062 328.488281 133.128906 328.632812 C 131.566406 328.925781 130.027344 329.285156 128.503906 329.707031 C 128.128906 329.816406 127.746094 329.925781 127.363281 330.039062 C 126.996094 330.140625 126.621094 330.246094 126.25 330.351562 C 125.5 330.566406 124.765625 330.796875 124.027344 331.042969 C 121.566406 331.847656 119.230469 332.851562 117.015625 333.9375 C 114.804688 335.003906 112.6875 336.230469 110.605469 337.609375 C 111.753906 338.476562 113.132812 339.308594 114.695312 340.101562 C 116.269531 340.851562 118.050781 341.515625 119.945312 342.144531 C 120.890625 342.449219 121.867188 342.761719 122.875 343.019531 C 123.894531 343.261719 124.933594 343.484375 125.984375 343.691406 C 127.042969 343.898438 128.117188 344.085938 129.199219 344.253906 C 129.738281 344.339844 130.28125 344.421875 130.824219 344.492188 C 131.371094 344.539062 131.925781 344.589844 132.480469 344.640625 C 134.691406 344.820312 136.910156 344.921875 139.070312 344.945312 C 141.257812 344.886719 143.394531 344.746094 145.429688 344.535156 C 145.933594 344.480469 146.4375 344.421875 146.929688 344.359375 L 147.300781 344.3125 C 147.421875 344.300781 147.5625 344.285156 147.628906 344.253906 L 148.121094 344.097656 C 148.78125 343.886719 149.441406 343.644531 150.074219 343.429688 C 151.351562 342.972656 152.566406 342.515625 153.699219 342.007812 C 155.59375 341.183594 157.390625 340.1875 158.941406 338.949219 C 160.488281 337.714844 161.816406 336.1875 162.699219 334.308594 C 162.988281 333.699219 163.363281 333.085938 163.964844 332.679688 C 164.554688 332.28125 165.320312 332.078125 166.03125 331.84375 C 166.90625 331.558594 167.804688 331.257812 168.710938 330.992188 C 168.929688 330.925781 169.214844 330.886719 169.398438 330.785156 C 169.160156 330.566406 168.777344 330.378906 168.488281 330.214844 L 167.527344 329.664062 C 167.335938 329.554688 166.851562 329.175781 166.632812 329.175781 C 166.5 329.175781 166.292969 329.347656 166.191406 329.402344 C 166.027344 329.492188 165.867188 329.585938 165.710938 329.679688 C 165.414062 329.859375 165.109375 330.042969 164.8125 330.222656 C 164.496094 330.410156 164.175781 330.582031 163.839844 330.734375 C 163.207031 331.015625 162.152344 330.601562 161.53125 330.292969 " fill-opacity="1" fill-rule="nonzero"/><path fill="#ffffff" d="M 161.277344 320.582031 C 160.808594 319.367188 160.492188 318.121094 160.125 316.898438 C 159.757812 315.679688 159.347656 314.425781 158.667969 313.257812 C 158.230469 312.503906 157.761719 311.761719 157.261719 311.027344 C 156.757812 310.308594 156.226562 309.609375 155.660156 308.917969 C 155.019531 308.214844 154.6875 307.578125 154.238281 306.949219 C 153.8125 306.3125 153.371094 305.699219 152.921875 305.101562 C 152.023438 303.902344 151.085938 302.789062 150.105469 301.714844 C 149.144531 300.589844 148.136719 299.535156 147.082031 298.546875 C 146.558594 298.054688 146.019531 297.574219 145.46875 297.117188 C 144.929688 296.621094 144.375 296.140625 143.808594 295.679688 C 143.242188 295.214844 142.667969 294.769531 142.074219 294.339844 C 141.777344 294.125 141.476562 293.914062 141.171875 293.710938 L 140.710938 293.402344 L 140.261719 293.070312 C 139.046875 292.203125 137.773438 291.398438 136.429688 290.652344 C 135.753906 290.300781 135.097656 289.871094 134.402344 289.496094 C 133.714844 289.113281 133.011719 288.746094 132.285156 288.394531 C 131.90625 288.210938 131.496094 288.085938 131.019531 287.902344 C 131.601562 290.390625 132.230469 292.78125 132.902344 295.210938 C 134.390625 300.339844 136.15625 305.582031 139.265625 310.460938 C 142.101562 315 146.269531 318.652344 152.132812 320.761719 C 153.011719 321.085938 153.960938 321.398438 154.890625 321.65625 C 155.824219 321.933594 156.785156 322.113281 157.746094 322.226562 C 158.28125 322.277344 158.816406 322.289062 159.335938 322.261719 C 159.746094 322.242188 160.25 322.171875 160.578125 322.5 C 160.890625 322.816406 161.0625 323.183594 161.308594 323.519531 C 161.421875 323.667969 161.53125 323.816406 161.640625 323.960938 C 161.667969 323.996094 162.53125 325.203125 162.570312 325.210938 C 162.570312 325.210938 162.980469 325.238281 163.390625 325.265625 C 163.796875 325.300781 164.203125 325.34375 164.203125 325.34375 C 164.175781 325.335938 163.546875 324.472656 163.523438 324.453125 L 163.269531 324.117188 C 163.085938 323.875 162.914062 323.628906 162.75 323.378906 C 162.425781 322.875 162.136719 322.347656 161.859375 321.835938 C 161.636719 321.421875 161.4375 321.007812 161.277344 320.582031 " fill-opacity="1" fill-rule="nonzero"/><path fill="#ffffff" d="M 120.28125 317.300781 C 119.453125 316.824219 118.558594 316.445312 117.683594 316.042969 C 116.398438 315.398438 115.117188 314.757812 113.820312 314.175781 C 112.527344 313.585938 111.203125 313.074219 109.921875 312.503906 C 107.332031 311.402344 104.628906 310.578125 101.914062 309.824219 C 100.257812 309.390625 98.597656 309.074219 96.980469 308.789062 C 95.375 308.476562 93.78125 308.246094 92.1875 308.089844 C 91.390625 308.007812 90.59375 307.949219 89.796875 307.902344 C 89 307.863281 88.234375 307.792969 87.453125 307.769531 C 85.890625 307.699219 84.335938 307.699219 82.773438 307.753906 C 80.140625 307.871094 77.6875 308.058594 75.246094 308.460938 C 72.8125 308.859375 70.40625 309.441406 68.015625 310.167969 C 71.40625 314.761719 78.667969 319.929688 86.898438 323.226562 C 87.152344 323.332031 87.40625 323.4375 87.660156 323.546875 C 87.921875 323.644531 88.183594 323.738281 88.445312 323.832031 C 88.964844 324.019531 89.484375 324.203125 90.007812 324.386719 C 91.054688 324.746094 92.101562 325.082031 93.140625 325.398438 C 95.203125 326.058594 97.316406 326.503906 99.335938 326.878906 C 103.34375 327.671875 107.160156 327.828125 110.246094 327.601562 C 110.898438 327.554688 111.53125 327.484375 112.144531 327.386719 C 112.765625 327.277344 113.363281 327.144531 113.945312 326.988281 C 115.105469 326.675781 116.167969 326.269531 117.128906 325.769531 C 119.050781 324.761719 120.539062 323.363281 121.496094 321.511719 C 121.808594 320.910156 122.21875 320.320312 122.871094 319.949219 C 123.507812 319.59375 124.332031 319.414062 125.085938 319.167969 L 127.855469 318.257812 C 128.082031 318.179688 128.371094 318.121094 128.554688 318.007812 C 128.292969 317.800781 127.886719 317.648438 127.578125 317.488281 L 126.570312 316.960938 C 126.367188 316.855469 125.859375 316.496094 125.632812 316.496094 C 125.496094 316.496094 125.285156 316.667969 125.179688 316.722656 C 125.015625 316.8125 124.851562 316.902344 124.6875 316.996094 C 124.378906 317.167969 124.070312 317.339844 123.753906 317.5 C 123.425781 317.671875 123.085938 317.832031 122.726562 317.957031 C 122.054688 318.199219 120.933594 317.671875 120.28125 317.300781 " fill-opacity="1" fill-rule="nonzero"/><path fill="#ffffff" d="M 121.121094 307.65625 C 120.6875 305.144531 120.957031 302.667969 120.449219 300.226562 C 119.152344 294 117.164062 288.371094 114.273438 283.390625 C 111.449219 278.289062 107.75 273.78125 103.054688 269.34375 C 102.753906 269.050781 102.40625 268.796875 102.015625 268.472656 C 101.921875 269.765625 101.824219 271.058594 101.777344 272.304688 C 101.738281 273.546875 101.710938 274.777344 101.691406 276.027344 C 101.671875 277.371094 101.664062 278.722656 101.683594 280.097656 C 101.6875 280.792969 101.722656 281.460938 101.761719 282.132812 C 101.804688 282.808594 101.851562 283.492188 101.910156 284.171875 C 102.152344 286.902344 102.535156 289.738281 103.34375 292.484375 C 103.699219 293.769531 104.140625 295.035156 104.675781 296.277344 C 104.8125 296.585938 104.949219 296.902344 105.101562 297.203125 C 105.253906 297.5 105.414062 297.792969 105.578125 298.085938 C 105.910156 298.671875 106.265625 299.253906 106.652344 299.820312 C 107.417969 300.960938 108.28125 302.085938 109.273438 303.144531 C 110.285156 304.160156 111.417969 305.136719 112.664062 306.066406 C 114.128906 307.199219 115.765625 308.199219 117.550781 308.730469 C 118.046875 308.878906 118.546875 308.980469 119.039062 309.039062 C 119.425781 309.085938 119.910156 309.082031 120.164062 309.449219 C 120.402344 309.8125 120.515625 310.191406 120.710938 310.542969 C 120.796875 310.699219 120.882812 310.855469 120.972656 311.007812 C 120.988281 311.042969 121.703125 312.304688 121.746094 312.320312 L 123.332031 312.558594 C 123.300781 312.554688 122.757812 311.667969 122.746094 311.640625 L 122.527344 311.292969 C 122.378906 311.035156 122.242188 310.777344 122.113281 310.519531 C 121.863281 309.996094 121.652344 309.472656 121.46875 308.941406 C 121.316406 308.519531 121.199219 308.097656 121.121094 307.65625 " fill-opacity="1" fill-rule="nonzero"/><path fill="#ffffff" d="M 81.9375 291.636719 C 81.304688 290.925781 80.578125 290.289062 79.878906 289.632812 C 79.355469 289.140625 78.828125 288.664062 78.300781 288.183594 C 77.789062 287.683594 77.273438 287.195312 76.757812 286.71875 C 75.714844 285.757812 74.648438 284.839844 73.550781 283.960938 C 72.46875 283.066406 71.398438 282.171875 70.257812 281.355469 C 69.691406 280.941406 69.117188 280.539062 68.527344 280.152344 C 68.230469 279.960938 67.933594 279.769531 67.632812 279.585938 C 67.339844 279.394531 67.046875 279.203125 66.75 279.007812 C 65.316406 278.09375 63.863281 277.269531 62.398438 276.523438 C 61.679688 276.164062 60.949219 275.804688 60.214844 275.4375 C 59.496094 275.082031 58.773438 274.746094 58.042969 274.429688 C 56.589844 273.792969 55.113281 273.226562 53.617188 272.722656 C 52.160156 272.1875 50.691406 271.710938 49.195312 271.292969 C 44.148438 269.914062 39.449219 269.207031 34.429688 269.167969 C 36.1875 274.605469 41.65625 281.609375 48.421875 287.246094 C 50.136719 288.632812 51.902344 289.964844 53.671875 291.199219 C 55.480469 292.398438 57.328125 293.476562 59.117188 294.453125 C 60.882812 295.445312 62.710938 296.21875 64.414062 296.886719 C 66.132812 297.542969 67.734375 298.085938 69.257812 298.425781 C 74.421875 299.523438 78.832031 299 81.808594 296.011719 C 82.289062 295.527344 82.863281 295.089844 83.601562 294.921875 C 84.332031 294.761719 85.160156 294.847656 85.945312 294.847656 L 88.835938 294.839844 C 89.070312 294.839844 89.359375 294.875 89.566406 294.820312 C 89.382812 294.539062 89.050781 294.265625 88.808594 294.019531 L 88.023438 293.203125 C 87.863281 293.039062 87.5 292.535156 87.285156 292.460938 C 87.160156 292.421875 86.90625 292.519531 86.789062 292.539062 C 86.609375 292.574219 86.425781 292.613281 86.242188 292.648438 C 85.890625 292.722656 85.542969 292.796875 85.183594 292.863281 C 84.820312 292.933594 84.445312 292.988281 84.054688 293.003906 C 83.320312 293.058594 82.4375 292.191406 81.9375 291.636719 " fill-opacity="1" fill-rule="nonzero"/><path fill="#ffffff" d="M 85.167969 283.261719 C 85.460938 280.785156 86.492188 278.480469 86.765625 275.988281 C 86.933594 274.390625 87.042969 272.835938 87.082031 271.308594 C 87.089844 270.554688 87.117188 269.777344 87.121094 269.011719 C 87.121094 268.25 87.105469 267.496094 87.078125 266.746094 C 87.019531 265.246094 86.859375 263.808594 86.679688 262.347656 C 86.519531 260.875 86.28125 259.4375 85.964844 258.023438 C 85.628906 256.632812 85.308594 255.191406 84.890625 253.789062 C 84.679688 253.085938 84.453125 252.394531 84.199219 251.703125 C 84.074219 251.359375 83.945312 251.011719 83.816406 250.667969 C 83.695312 250.316406 83.574219 249.964844 83.441406 249.609375 C 82.921875 248.207031 82.300781 246.828125 81.621094 245.445312 C 80.992188 244.027344 80.277344 242.625 79.460938 241.226562 C 79.242188 240.867188 78.988281 240.515625 78.722656 240.082031 C 78.210938 241.304688 77.796875 242.472656 77.375 243.652344 C 76.953125 244.828125 76.550781 246 76.148438 247.191406 C 75.253906 249.773438 74.53125 252.332031 73.914062 255.03125 C 73.613281 256.371094 73.316406 257.765625 73.136719 259.148438 C 72.957031 260.53125 72.828125 261.945312 72.773438 263.394531 C 72.746094 264.066406 72.742188 264.738281 72.757812 265.414062 C 72.773438 266.085938 72.8125 266.765625 72.902344 267.421875 C 73.074219 268.742188 73.339844 270.074219 73.710938 271.40625 C 73.902344 272.070312 74.113281 272.734375 74.355469 273.402344 C 74.609375 274.0625 74.910156 274.703125 75.230469 275.347656 C 75.882812 276.636719 76.652344 277.925781 77.546875 279.199219 C 78.65625 280.675781 79.886719 282.15625 81.410156 283.226562 C 81.835938 283.511719 82.265625 283.777344 82.730469 283.976562 C 83.089844 284.125 83.566406 284.261719 83.703125 284.679688 C 83.835938 285.085938 83.824219 285.480469 83.902344 285.882812 C 83.933594 286.0625 83.96875 286.238281 84.003906 286.410156 C 84.011719 286.453125 84.292969 287.882812 84.332031 287.910156 L 85.757812 288.640625 C 85.730469 288.621094 85.492188 287.605469 85.488281 287.574219 L 85.394531 287.175781 C 85.328125 286.882812 85.273438 286.589844 85.234375 286.300781 C 85.15625 285.722656 85.121094 285.152344 85.109375 284.589844 C 85.101562 284.140625 85.113281 283.691406 85.167969 283.261719 " fill-opacity="1" fill-rule="nonzero"/><path fill="#ffffff" d="M 54.230469 258.417969 C 53.816406 257.558594 53.261719 256.761719 52.800781 255.921875 C 52.109375 254.664062 51.394531 253.433594 50.652344 252.234375 C 50.277344 251.632812 49.898438 251.035156 49.503906 250.449219 C 49.140625 249.847656 48.765625 249.253906 48.378906 248.667969 C 47.609375 247.496094 46.792969 246.359375 45.921875 245.253906 C 45.472656 244.710938 45.074219 244.140625 44.628906 243.597656 C 44.191406 243.054688 43.734375 242.519531 43.261719 241.988281 C 38.671875 236.914062 33.882812 232.914062 28.59375 229.605469 C 27.464844 228.917969 26.394531 228.261719 25.300781 227.660156 C 24.207031 227.054688 23.101562 226.496094 21.976562 225.980469 C 20.851562 225.464844 19.710938 224.992188 18.550781 224.554688 C 17.972656 224.335938 17.390625 224.125 16.796875 223.925781 C 16.21875 223.726562 15.636719 223.527344 15.046875 223.34375 C 15.054688 223.699219 15.066406 224.066406 15.097656 224.449219 C 15.140625 224.820312 15.191406 225.207031 15.25 225.597656 C 15.371094 226.382812 15.53125 227.203125 15.734375 228.054688 C 15.929688 228.902344 16.167969 229.777344 16.4375 230.675781 C 16.570312 231.125 16.714844 231.578125 16.867188 232.035156 C 17.027344 232.492188 17.210938 232.949219 17.394531 233.410156 C 18.136719 235.257812 19.003906 237.160156 19.972656 239.066406 C 20.980469 240.960938 22.140625 242.839844 23.335938 244.683594 C 23.640625 245.136719 23.945312 245.597656 24.253906 246.054688 C 24.566406 246.507812 24.90625 246.945312 25.238281 247.386719 C 25.90625 248.261719 26.582031 249.121094 27.273438 249.960938 C 27.957031 250.800781 28.652344 251.617188 29.351562 252.40625 C 30.078125 253.179688 30.816406 253.925781 31.550781 254.636719 C 32.28125 255.351562 33.011719 256.035156 33.738281 256.683594 C 34.472656 257.320312 35.160156 257.949219 35.914062 258.496094 C 37.386719 259.605469 38.8125 260.554688 40.160156 261.316406 C 42.394531 262.621094 44.71875 263.40625 46.863281 263.648438 C 49.019531 263.890625 51.035156 263.5625 52.871094 262.570312 C 53.46875 262.246094 54.140625 261.988281 54.882812 262.046875 C 55.621094 262.101562 56.367188 262.433594 57.136719 262.648438 L 59.941406 263.441406 C 60.171875 263.503906 60.441406 263.617188 60.660156 263.625 C 60.554688 263.308594 60.308594 262.957031 60.144531 262.648438 L 59.605469 261.652344 C 59.496094 261.453125 59.28125 260.871094 59.089844 260.746094 C 58.980469 260.667969 58.707031 260.695312 58.59375 260.679688 C 58.414062 260.660156 58.230469 260.640625 58.046875 260.621094 C 57.695312 260.589844 57.34375 260.5625 56.992188 260.519531 C 56.621094 260.476562 56.253906 260.417969 55.882812 260.320312 C 55.191406 260.148438 54.558594 259.085938 54.230469 258.417969 " fill-opacity="1" fill-rule="nonzero"/><path fill="#ffffff" d="M 59.523438 251.40625 C 60.5625 249.082031 62.171875 247.183594 63.113281 244.878906 C 63.417969 244.140625 63.695312 243.410156 63.964844 242.679688 C 64.246094 241.9375 64.519531 241.203125 64.765625 240.46875 C 65.261719 239 65.683594 237.546875 66.023438 236.101562 C 66.191406 235.367188 66.355469 234.640625 66.515625 233.929688 C 66.671875 233.199219 66.816406 232.476562 66.9375 231.753906 C 67.050781 231.027344 67.15625 230.308594 67.234375 229.585938 C 67.320312 228.863281 67.351562 228.15625 67.4375 227.417969 C 67.578125 225.960938 67.636719 224.507812 67.609375 223.050781 C 67.601562 222.691406 67.59375 222.324219 67.574219 221.960938 C 67.574219 221.59375 67.570312 221.222656 67.558594 220.851562 C 67.539062 220.113281 67.496094 219.371094 67.433594 218.628906 C 67.371094 217.882812 67.285156 217.144531 67.175781 216.394531 C 67.089844 215.644531 67.011719 214.878906 66.894531 214.113281 C 66.78125 213.351562 66.648438 212.582031 66.492188 211.8125 C 66.40625 211.425781 66.324219 211.039062 66.238281 210.648438 C 66.167969 210.253906 66.097656 209.859375 66.015625 209.460938 C 65.933594 209.046875 65.785156 208.644531 65.640625 208.152344 C 64.835938 209.175781 64.054688 210.183594 63.289062 211.199219 C 62.535156 212.210938 61.84375 213.210938 61.128906 214.234375 C 60.363281 215.335938 59.601562 216.453125 58.855469 217.601562 C 58.480469 218.175781 58.101562 218.757812 57.753906 219.34375 C 57.40625 219.925781 57.070312 220.515625 56.738281 221.113281 C 56.078125 222.3125 55.441406 223.550781 54.847656 224.835938 C 54.550781 225.476562 54.261719 226.128906 53.988281 226.800781 C 53.722656 227.460938 53.492188 228.132812 53.265625 228.816406 C 52.851562 230.078125 52.515625 231.371094 52.269531 232.703125 C 52.152344 233.367188 52.042969 234.046875 51.976562 234.722656 C 51.925781 235.394531 51.898438 236.074219 51.898438 236.761719 C 51.902344 238.136719 52.003906 239.550781 52.226562 240.988281 C 52.320312 241.714844 52.519531 242.414062 52.710938 243.140625 C 52.910156 243.859375 53.136719 244.585938 53.398438 245.324219 C 53.710938 246.195312 54.03125 247.082031 54.429688 247.933594 C 54.859375 248.765625 55.351562 249.566406 55.953125 250.289062 C 56.28125 250.6875 56.636719 251.050781 57.015625 251.375 C 57.3125 251.632812 57.714844 251.902344 57.71875 252.351562 C 57.722656 252.78125 57.59375 253.164062 57.542969 253.574219 C 57.523438 253.753906 57.511719 253.929688 57.496094 254.109375 C 57.492188 254.148438 57.378906 255.59375 57.40625 255.628906 L 58.589844 256.722656 C 58.570312 256.695312 58.613281 255.65625 58.617188 255.628906 L 58.636719 255.21875 C 58.648438 254.925781 58.683594 254.632812 58.722656 254.34375 C 58.804688 253.773438 58.925781 253.222656 59.070312 252.679688 C 59.195312 252.238281 59.34375 251.804688 59.523438 251.40625 " fill-opacity="1" fill-rule="nonzero"/><g clip-path="url(#10141bad7a)"><path fill="#ffffff" d="M 36.460938 216.21875 C 36.332031 215.277344 36.085938 214.339844 35.867188 213.402344 C 35.71875 212.699219 35.519531 212.015625 35.382812 211.316406 C 35.242188 210.617188 35.085938 209.925781 34.921875 209.234375 C 34.59375 207.863281 34.226562 206.5 33.804688 205.160156 C 33.429688 203.804688 33.03125 202.46875 32.550781 201.152344 C 32.308594 200.492188 32.058594 199.835938 31.78125 199.183594 C 31.648438 198.859375 31.507812 198.535156 31.363281 198.210938 C 31.230469 197.890625 31.09375 197.566406 30.957031 197.238281 C 29.628906 194.113281 27.953125 191.253906 26.328125 188.558594 C 25.480469 187.210938 24.582031 185.914062 23.628906 184.65625 C 23.167969 184.042969 22.699219 183.421875 22.226562 182.792969 C 21.75 182.183594 21.265625 181.582031 20.769531 180.988281 C 19.9375 179.992188 19.085938 179.042969 18.207031 178.140625 C 17.332031 177.230469 16.402344 176.363281 15.519531 175.535156 C 13.722656 173.875 11.804688 172.355469 9.761719 170.929688 C 9.375 172.304688 9.101562 173.882812 8.933594 175.617188 C 8.796875 177.351562 8.839844 179.242188 8.941406 181.222656 C 9 182.210938 9.082031 183.230469 9.1875 184.257812 C 9.320312 185.285156 9.503906 186.332031 9.695312 187.386719 C 9.886719 188.445312 10.105469 189.507812 10.34375 190.570312 C 10.46875 191.101562 10.585938 191.632812 10.714844 192.167969 C 10.835938 192.703125 11.011719 193.234375 11.167969 193.761719 C 11.804688 195.878906 12.519531 197.976562 13.289062 199.992188 C 14.117188 202.003906 15.042969 203.9375 15.976562 205.75 C 16.210938 206.203125 16.449219 206.648438 16.6875 207.085938 C 16.921875 207.523438 17.167969 207.949219 17.433594 208.363281 C 17.953125 209.195312 18.476562 209.992188 19 210.746094 C 20.050781 212.257812 21.097656 213.597656 22.144531 214.738281 C 23.976562 216.636719 25.890625 218.101562 27.855469 218.984375 C 29.8125 219.871094 31.832031 220.167969 33.890625 219.773438 C 34.5625 219.644531 35.285156 219.597656 35.992188 219.875 C 36.691406 220.148438 37.332031 220.683594 37.980469 221.125 L 40.390625 222.734375 C 40.582031 222.859375 40.804688 223.054688 41.007812 223.128906 C 41.011719 222.792969 40.886719 222.378906 40.824219 222.035156 L 40.625 220.921875 C 40.585938 220.699219 40.5625 220.074219 40.421875 219.894531 C 40.34375 219.789062 40.078125 219.730469 39.96875 219.683594 C 39.800781 219.613281 39.628906 219.539062 39.453125 219.464844 C 39.121094 219.332031 38.785156 219.199219 38.453125 219.058594 C 38.109375 218.90625 37.769531 218.738281 37.4375 218.542969 C 36.824219 218.167969 36.5625 216.957031 36.460938 216.21875 " fill-opacity="1" fill-rule="nonzero"/></g><path fill="#ffffff" d="M 43.628906 211.128906 C 44.039062 210.65625 44.476562 210.222656 44.929688 209.800781 C 45.382812 209.382812 45.867188 208.976562 46.339844 208.574219 C 47.285156 207.761719 48.222656 206.949219 49.03125 205.996094 C 50.066406 204.773438 51.027344 203.539062 51.910156 202.300781 C 52.804688 201.054688 53.699219 199.789062 54.46875 198.519531 C 54.859375 197.878906 55.234375 197.242188 55.585938 196.601562 C 55.765625 196.277344 55.933594 195.953125 56.101562 195.632812 C 56.179688 195.46875 56.265625 195.308594 56.347656 195.144531 C 56.4375 194.984375 56.523438 194.820312 56.609375 194.65625 C 57.300781 193.347656 57.914062 192.023438 58.449219 190.679688 C 58.722656 190.007812 58.941406 189.332031 59.203125 188.644531 C 59.464844 187.960938 59.710938 187.269531 59.933594 186.570312 C 60.160156 185.875 60.359375 185.171875 60.542969 184.460938 C 60.726562 183.75 60.875 183.03125 61.070312 182.304688 C 61.441406 180.84375 61.722656 179.355469 61.925781 177.828125 C 61.964844 177.445312 62.03125 177.0625 62.097656 176.675781 C 62.160156 176.289062 62.214844 175.898438 62.269531 175.507812 C 62.375 174.722656 62.457031 173.921875 62.523438 173.117188 C 62.554688 172.695312 62.523438 172.265625 62.519531 171.75 C 60.410156 173.210938 58.414062 174.679688 56.398438 176.195312 C 55.863281 176.605469 55.300781 177.019531 54.789062 177.4375 L 53.234375 178.71875 C 52.199219 179.585938 51.167969 180.484375 50.152344 181.429688 C 48.078125 183.3125 46.253906 185.371094 44.511719 187.714844 C 44.113281 188.253906 43.730469 188.804688 43.363281 189.375 C 43.183594 189.660156 42.996094 189.949219 42.828125 190.238281 C 42.667969 190.527344 42.515625 190.824219 42.363281 191.117188 C 41.761719 192.3125 41.230469 193.5625 40.792969 194.875 C 40.574219 195.53125 40.378906 196.203125 40.203125 196.890625 C 40.042969 197.578125 39.9375 198.277344 39.839844 198.996094 C 39.65625 200.429688 39.574219 201.929688 39.597656 203.484375 C 39.675781 205.335938 39.878906 207.25 40.546875 208.992188 C 40.734375 209.46875 40.957031 209.929688 41.214844 210.355469 C 41.417969 210.6875 41.742188 211.058594 41.621094 211.488281 C 41.503906 211.894531 41.277344 212.21875 41.113281 212.59375 C 41.042969 212.761719 40.972656 212.925781 40.902344 213.089844 C 40.890625 213.125 40.328125 214.472656 40.34375 214.515625 L 41.121094 215.921875 C 41.109375 215.890625 41.476562 214.910156 41.488281 214.886719 L 41.632812 214.5 C 41.738281 214.21875 41.859375 213.949219 41.988281 213.6875 C 42.246094 213.164062 42.539062 212.671875 42.839844 212.199219 C 43.085938 211.816406 43.34375 211.457031 43.628906 211.128906 " fill-opacity="1" fill-rule="nonzero"/><path fill="#ffffff" d="M 32.199219 172.609375 C 32.335938 171.667969 32.363281 170.699219 32.417969 169.742188 C 32.539062 168.316406 32.675781 166.902344 32.742188 165.488281 C 32.777344 164.78125 32.804688 164.078125 32.820312 163.371094 C 32.828125 162.664062 32.828125 161.960938 32.855469 161.261719 C 32.886719 159.859375 32.871094 158.464844 32.78125 157.0625 C 32.746094 156.363281 32.660156 155.660156 32.613281 154.964844 C 32.5625 154.265625 32.496094 153.566406 32.40625 152.867188 C 32.203125 151.175781 31.882812 149.523438 31.554688 147.917969 C 31.25 146.320312 30.875 144.753906 30.433594 143.21875 C 30.210938 142.453125 29.96875 141.691406 29.722656 140.941406 C 29.496094 140.191406 29.253906 139.453125 28.992188 138.71875 C 28.476562 137.25 27.898438 135.800781 27.265625 134.371094 C 26.726562 133.171875 26.207031 132.027344 25.640625 130.910156 C 25.078125 129.796875 24.476562 128.710938 23.835938 127.652344 C 22.554688 125.53125 21.121094 123.511719 19.609375 121.570312 C 16.550781 126.390625 14.429688 135.035156 14.425781 143.863281 C 14.425781 148.273438 14.765625 152.691406 15.605469 156.699219 C 15.800781 157.699219 16.015625 158.671875 16.242188 159.613281 C 16.460938 160.550781 16.773438 161.464844 17.054688 162.335938 C 17.632812 164.082031 18.269531 165.671875 18.9375 167.054688 C 19.222656 167.640625 19.507812 168.203125 19.832031 168.734375 C 20.164062 169.269531 20.511719 169.777344 20.867188 170.257812 C 21.578125 171.21875 22.34375 172.054688 23.164062 172.761719 C 24.800781 174.179688 26.644531 175.050781 28.71875 175.269531 C 29.394531 175.339844 30.09375 175.507812 30.679688 175.972656 C 31.238281 176.4375 31.703125 177.132812 32.207031 177.746094 L 34.070312 179.984375 C 34.222656 180.164062 34.382812 180.410156 34.554688 180.539062 C 34.648438 180.21875 34.644531 179.789062 34.683594 179.445312 L 34.804688 178.316406 C 34.828125 178.089844 34.976562 177.488281 34.894531 177.277344 C 34.847656 177.15625 34.609375 177.019531 34.519531 176.941406 C 34.375 176.828125 34.234375 176.707031 34.089844 176.585938 C 33.816406 176.359375 33.542969 176.140625 33.273438 175.902344 C 32.996094 175.664062 32.726562 175.402344 32.476562 175.117188 C 32.007812 174.578125 32.089844 173.347656 32.199219 172.609375 " fill-opacity="1" fill-rule="nonzero"/><path fill="#ffffff" d="M 40.511719 169.8125 C 42.6875 168.484375 45.09375 167.824219 47.183594 166.453125 C 47.851562 166.019531 48.503906 165.574219 49.136719 165.121094 C 49.769531 164.667969 50.371094 164.203125 51.007812 163.742188 C 52.253906 162.808594 53.429688 161.84375 54.539062 160.84375 C 55.089844 160.347656 55.625 159.839844 56.144531 159.320312 C 56.675781 158.808594 57.214844 158.285156 57.722656 157.757812 C 58.75 156.695312 59.699219 155.59375 60.578125 154.457031 C 64.28125 149.921875 67.121094 144.808594 69.539062 138.8125 C 69.699219 138.417969 69.800781 138 69.957031 137.511719 C 67.488281 138.292969 65.089844 139.097656 62.804688 140 C 61.554688 140.476562 60.292969 140.972656 59.027344 141.503906 C 58.402344 141.765625 57.761719 142.035156 57.140625 142.320312 C 56.527344 142.605469 55.917969 142.902344 55.304688 143.210938 C 54.082031 143.828125 52.859375 144.496094 51.644531 145.21875 C 51.039062 145.585938 50.414062 145.957031 49.835938 146.359375 C 49.25 146.765625 48.675781 147.183594 48.101562 147.621094 C 47.042969 148.429688 46.03125 149.308594 45.074219 150.273438 C 44.835938 150.511719 44.597656 150.757812 44.363281 151.007812 C 44.140625 151.257812 43.929688 151.515625 43.71875 151.78125 C 43.292969 152.304688 42.882812 152.851562 42.492188 153.421875 C 41.722656 154.558594 40.976562 155.777344 40.375 157.09375 C 39.800781 158.417969 39.300781 159.828125 38.890625 161.335938 C 38.769531 161.777344 38.648438 162.234375 38.539062 162.691406 C 38.4375 163.148438 38.371094 163.609375 38.304688 164.078125 C 38.179688 165.007812 38.128906 165.945312 38.210938 166.878906 C 38.253906 167.386719 38.335938 167.894531 38.460938 168.375 C 38.558594 168.753906 38.738281 169.203125 38.484375 169.578125 C 38.238281 169.933594 37.9375 170.179688 37.671875 170.488281 C 37.558594 170.625 37.449219 170.765625 37.335938 170.902344 C 37.3125 170.933594 36.398438 172.058594 36.398438 172.105469 L 36.75 173.675781 C 36.75 173.640625 37.375 172.816406 37.390625 172.789062 L 37.640625 172.464844 C 37.824219 172.226562 38.011719 172.003906 38.210938 171.789062 C 38.601562 171.363281 39.019531 170.976562 39.441406 170.609375 C 39.789062 170.316406 40.125 170.046875 40.511719 169.8125 " fill-opacity="1" fill-rule="nonzero"/><path fill="#ffffff" d="M 40.625 130.71875 C 41.03125 129.863281 41.359375 128.949219 41.699219 128.054688 C 43.671875 122.6875 45.574219 117.46875 46.382812 111.867188 C 46.976562 108.53125 47.152344 105.238281 47.242188 102.085938 C 47.269531 100.503906 47.203125 98.914062 47.109375 97.355469 C 47.042969 95.808594 46.90625 94.265625 46.714844 92.722656 C 46.558594 91.433594 46.339844 90.164062 46.109375 88.933594 C 45.890625 87.707031 45.625 86.5 45.3125 85.3125 C 44.699219 82.925781 43.902344 80.59375 42.964844 78.28125 C 41.894531 79.21875 40.832031 80.410156 39.757812 81.78125 C 39.226562 82.464844 38.691406 83.199219 38.164062 83.972656 C 37.664062 84.765625 37.167969 85.59375 36.683594 86.457031 C 34.695312 89.886719 33.019531 93.964844 31.707031 98.160156 C 31.09375 100.277344 30.527344 102.40625 30.09375 104.527344 C 29.703125 106.667969 29.398438 108.773438 29.1875 110.796875 C 29.128906 111.296875 29.09375 111.800781 29.074219 112.304688 C 29.046875 112.804688 29.027344 113.300781 29.015625 113.789062 C 28.984375 114.761719 28.980469 115.710938 29.003906 116.625 C 29.027344 117.539062 29.0625 118.417969 29.144531 119.261719 C 29.238281 120.113281 29.355469 120.921875 29.492188 121.6875 C 29.730469 122.976562 30.042969 124.1875 30.441406 125.296875 C 30.835938 126.410156 31.3125 127.421875 31.921875 128.335938 C 33.113281 130.15625 34.65625 131.511719 36.589844 132.300781 C 37.21875 132.558594 37.847656 132.917969 38.28125 133.53125 C 38.710938 134.136719 38.941406 134.929688 39.234375 135.648438 L 39.785156 136.980469 L 40.382812 138.308594 C 40.480469 138.523438 40.566406 138.808594 40.699219 138.980469 C 40.875 138.699219 40.988281 138.28125 41.117188 137.960938 C 41.25 137.609375 41.394531 137.265625 41.554688 136.921875 C 41.644531 136.714844 41.976562 136.183594 41.960938 135.960938 C 41.953125 135.828125 41.765625 135.632812 41.703125 135.535156 C 41.601562 135.386719 41.5 135.230469 41.394531 135.078125 C 41.195312 134.78125 40.988281 134.492188 40.792969 134.191406 C 40.59375 133.878906 40.402344 133.558594 40.234375 133.210938 C 39.925781 132.5625 40.328125 131.398438 40.625 130.71875 " fill-opacity="1" fill-rule="nonzero"/><path fill="#ffffff" d="M 48.535156 130.054688 C 49.753906 129.714844 50.980469 129.554688 52.199219 129.382812 C 52.808594 129.300781 53.414062 129.210938 54.015625 129.097656 C 54.621094 128.984375 55.238281 128.859375 55.839844 128.679688 C 57.390625 128.21875 58.878906 127.714844 60.3125 127.160156 C 61.027344 126.878906 61.726562 126.585938 62.417969 126.285156 C 63.125 125.988281 63.820312 125.683594 64.503906 125.363281 C 65.863281 124.726562 67.167969 124.035156 68.414062 123.285156 C 69.703125 122.558594 70.953125 121.785156 72.136719 120.945312 C 76.941406 117.621094 81.128906 113.5 85.171875 108.398438 C 85.445312 108.070312 85.664062 107.699219 85.953125 107.277344 C 84.65625 107.304688 83.359375 107.332031 82.105469 107.398438 C 80.863281 107.472656 79.625 107.558594 78.378906 107.65625 C 77.035156 107.757812 75.675781 107.875 74.304688 108.019531 C 72.972656 108.1875 71.625 108.386719 70.265625 108.628906 C 68.910156 108.875 67.53125 109.15625 66.15625 109.511719 C 64.808594 109.882812 63.457031 110.316406 62.09375 110.832031 C 57.046875 112.703125 52.605469 116.070312 49.34375 121.421875 C 48.425781 123.03125 47.480469 124.722656 47.097656 126.558594 C 47.003906 127.070312 46.953125 127.582031 46.949219 128.085938 C 46.941406 128.480469 46.996094 128.96875 46.660156 129.257812 C 46.335938 129.535156 45.957031 129.683594 45.613281 129.910156 C 45.460938 130.007812 45.3125 130.109375 45.164062 130.207031 C 45.128906 130.230469 43.902344 131.050781 43.894531 131.089844 C 43.894531 131.089844 43.882812 131.191406 43.867188 131.34375 C 43.855469 131.492188 43.839844 131.691406 43.832031 131.894531 C 43.8125 132.300781 43.796875 132.707031 43.796875 132.707031 C 43.800781 132.675781 44.621094 132.046875 44.644531 132.027344 C 44.75 131.945312 44.863281 131.863281 44.976562 131.785156 C 45.226562 131.609375 45.476562 131.449219 45.730469 131.300781 C 46.238281 131.003906 46.757812 130.75 47.277344 130.523438 C 47.695312 130.335938 48.113281 130.175781 48.535156 130.054688 " fill-opacity="1" fill-rule="nonzero"/><path fill="#ffffff" d="M 61.128906 91.542969 C 61.777344 90.851562 62.347656 90.066406 62.9375 89.3125 C 63.375 88.75 63.804688 88.179688 64.230469 87.613281 L 64.855469 86.75 L 65.507812 85.914062 C 66.355469 84.789062 67.167969 83.644531 67.9375 82.46875 C 68.308594 81.875 68.703125 81.300781 69.085938 80.714844 C 69.464844 80.128906 69.832031 79.539062 70.183594 78.933594 C 70.539062 78.332031 70.878906 77.71875 71.203125 77.09375 C 71.519531 76.480469 71.835938 75.859375 72.164062 75.21875 C 72.925781 73.699219 73.59375 72.175781 74.1875 70.640625 C 74.792969 69.117188 75.359375 67.632812 75.832031 66.109375 C 76.757812 63.042969 77.539062 60.082031 78.050781 56.996094 C 78.15625 56.355469 78.253906 55.714844 78.339844 55.082031 C 78.433594 54.457031 78.519531 53.835938 78.585938 53.214844 C 78.730469 51.972656 78.820312 50.742188 78.871094 49.507812 C 78.964844 47.042969 78.871094 44.5625 78.675781 42.117188 C 77.351562 42.664062 76 43.515625 74.582031 44.515625 C 73.878906 45.019531 73.160156 45.570312 72.433594 46.15625 C 72.074219 46.457031 71.703125 46.75 71.347656 47.078125 C 70.992188 47.402344 70.636719 47.738281 70.28125 48.082031 C 69.570312 48.769531 68.855469 49.496094 68.144531 50.242188 C 67.789062 50.617188 67.429688 51 67.078125 51.390625 C 66.902344 51.585938 66.726562 51.78125 66.550781 51.976562 C 66.382812 52.183594 66.210938 52.390625 66.042969 52.59375 C 64.6875 54.257812 63.367188 56.003906 62.117188 57.800781 C 60.914062 59.652344 59.777344 61.539062 58.730469 63.425781 C 57.710938 65.335938 56.832031 67.285156 56.039062 69.152344 C 55.839844 69.621094 55.652344 70.085938 55.46875 70.546875 C 55.300781 71.019531 55.140625 71.488281 54.988281 71.953125 C 54.679688 72.878906 54.402344 73.78125 54.152344 74.664062 C 53.910156 75.542969 53.695312 76.398438 53.515625 77.226562 C 53.332031 78.046875 53.226562 78.871094 53.132812 79.640625 C 52.839844 82.246094 52.90625 84.625 53.503906 86.703125 C 54.109375 88.796875 55.1875 90.546875 56.800781 91.867188 C 57.328125 92.300781 57.824219 92.828125 58.0625 93.542969 C 58.292969 94.246094 58.28125 95.074219 58.355469 95.847656 L 58.488281 97.28125 C 58.535156 97.757812 58.605469 98.246094 58.664062 98.722656 C 58.695312 98.957031 58.695312 99.257812 58.769531 99.460938 C 59.023438 99.242188 59.25 98.878906 59.464844 98.609375 C 59.695312 98.3125 59.949219 98.027344 60.195312 97.742188 C 60.34375 97.570312 60.816406 97.164062 60.867188 96.945312 C 60.894531 96.816406 60.777344 96.578125 60.742188 96.464844 C 60.6875 96.289062 60.636719 96.109375 60.582031 95.933594 C 60.476562 95.59375 60.367188 95.257812 60.269531 94.910156 C 60.167969 94.554688 60.074219 94.191406 60.019531 93.808594 C 59.917969 93.101562 60.632812 92.097656 61.128906 91.542969 " fill-opacity="1" fill-rule="nonzero"/><path fill="#ffffff" d="M 68.882812 93.226562 C 71.410156 93.292969 73.742188 94.03125 76.277344 94.058594 C 79.511719 94.09375 82.527344 93.828125 85.53125 93.425781 C 86.273438 93.316406 87.007812 93.1875 87.730469 93.046875 C 88.457031 92.90625 89.15625 92.730469 89.890625 92.582031 C 91.335938 92.265625 92.75 91.875 94.128906 91.414062 C 99.707031 89.640625 104.933594 86.914062 110.289062 83.210938 C 110.648438 82.96875 110.960938 82.675781 111.363281 82.351562 C 108.863281 81.648438 106.414062 81.015625 103.996094 80.507812 C 101.378906 79.941406 98.65625 79.371094 95.945312 79.082031 C 94.578125 78.925781 93.1875 78.804688 91.765625 78.742188 C 91.40625 78.726562 91.050781 78.71875 90.695312 78.707031 C 90.339844 78.710938 89.988281 78.714844 89.632812 78.71875 C 88.925781 78.730469 88.207031 78.761719 87.480469 78.8125 C 86.148438 78.902344 84.808594 79.078125 83.472656 79.347656 C 82.171875 79.65625 80.875 80.058594 79.582031 80.574219 C 78.9375 80.828125 78.296875 81.113281 77.652344 81.425781 C 77.015625 81.738281 76.414062 82.113281 75.796875 82.496094 C 74.574219 83.28125 73.359375 84.167969 72.183594 85.207031 C 70.832031 86.472656 69.453125 87.832031 68.53125 89.464844 C 68.285156 89.917969 68.09375 90.402344 67.941406 90.878906 C 67.820312 91.253906 67.730469 91.738281 67.320312 91.914062 C 66.933594 92.089844 66.53125 92.117188 66.132812 92.234375 C 65.960938 92.285156 65.789062 92.335938 65.617188 92.386719 C 65.578125 92.398438 64.171875 92.824219 64.144531 92.863281 C 64.144531 92.863281 63.996094 93.234375 63.847656 93.609375 C 63.699219 93.988281 63.570312 94.371094 63.570312 94.371094 C 63.585938 94.339844 64.550781 93.980469 64.585938 93.976562 L 64.980469 93.839844 C 65.269531 93.746094 65.554688 93.664062 65.839844 93.601562 C 66.414062 93.464844 66.984375 93.375 67.542969 93.304688 C 67.996094 93.25 68.445312 93.222656 68.882812 93.226562 " fill-opacity="1" fill-rule="nonzero"/><g clip-path="url(#15770d3344)"><path fill="#ffffff" d="M 92.027344 60.699219 C 92.84375 60.214844 93.609375 59.628906 94.386719 59.074219 C 94.964844 58.660156 95.539062 58.238281 96.105469 57.8125 C 96.667969 57.386719 97.253906 56.996094 97.816406 56.574219 C 98.953125 55.738281 100.054688 54.871094 101.117188 53.960938 C 102.203125 53.085938 103.269531 52.195312 104.285156 51.234375 C 104.789062 50.757812 105.289062 50.269531 105.773438 49.761719 C 106.265625 49.265625 106.765625 48.777344 107.242188 48.261719 C 108.402344 47.023438 109.46875 45.742188 110.476562 44.449219 C 111.503906 43.195312 112.457031 41.910156 113.347656 40.589844 C 113.792969 39.933594 114.214844 39.257812 114.632812 38.589844 C 115.054688 37.9375 115.464844 37.277344 115.863281 36.605469 C 116.652344 35.273438 117.386719 33.902344 118.074219 32.5 C 118.351562 31.925781 118.625 31.347656 118.90625 30.769531 C 119.175781 30.199219 119.433594 29.625 119.675781 29.050781 C 120.167969 27.902344 120.609375 26.746094 121.007812 25.574219 C 121.410156 24.402344 121.761719 23.21875 122.085938 22.027344 C 122.410156 20.851562 122.695312 19.664062 122.949219 18.449219 C 122.246094 18.535156 121.496094 18.660156 120.722656 18.839844 C 119.957031 19.035156 119.164062 19.28125 118.34375 19.5625 C 117.523438 19.839844 116.679688 20.164062 115.816406 20.519531 C 114.953125 20.882812 114.066406 21.257812 113.195312 21.726562 C 111.441406 22.640625 109.640625 23.6875 107.847656 24.828125 C 106.082031 26.035156 104.320312 27.335938 102.609375 28.695312 C 100.914062 30.089844 99.300781 31.605469 97.761719 33.105469 C 97.378906 33.488281 96.996094 33.851562 96.632812 34.25 C 96.277344 34.644531 95.921875 35.042969 95.5625 35.441406 C 94.867188 36.230469 94.191406 37.023438 93.550781 37.804688 C 92.917969 38.605469 92.285156 39.355469 91.734375 40.167969 C 91.179688 40.96875 90.65625 41.757812 90.171875 42.53125 C 89.6875 43.304688 89.238281 44.0625 88.835938 44.804688 C 88.632812 45.175781 88.441406 45.542969 88.257812 45.898438 C 88.085938 46.265625 87.921875 46.632812 87.769531 46.988281 C 86.746094 49.398438 86.148438 51.71875 86.105469 53.859375 C 86.082031 56.027344 86.621094 58.019531 87.785156 59.75 C 88.167969 60.3125 88.492188 60.960938 88.515625 61.710938 C 88.535156 62.457031 88.289062 63.242188 88.136719 64.007812 C 87.953125 64.957031 87.753906 65.878906 87.597656 66.835938 C 87.5625 67.070312 87.480469 67.355469 87.492188 67.574219 C 87.796875 67.4375 88.113281 67.148438 88.40625 66.964844 L 89.355469 66.355469 C 89.550781 66.234375 90.113281 65.976562 90.226562 65.78125 C 90.289062 65.667969 90.242188 65.402344 90.242188 65.285156 C 90.242188 65.101562 90.242188 64.917969 90.242188 64.730469 C 90.238281 64.375 90.226562 64.019531 90.230469 63.660156 C 90.234375 63.289062 90.253906 62.910156 90.308594 62.53125 C 90.414062 61.824219 91.375 61.058594 92.027344 60.699219 " fill-opacity="1" fill-rule="nonzero"/></g><path fill="#ffffff" d="M 96.386719 65.6875 C 98.742188 66.5625 100.71875 68.046875 103.066406 68.824219 C 104.550781 69.308594 106.0625 69.777344 107.546875 70.160156 C 109.035156 70.542969 110.503906 70.855469 111.960938 71.085938 C 113.421875 71.332031 114.902344 71.550781 116.351562 71.667969 C 117.078125 71.726562 117.796875 71.765625 118.515625 71.789062 C 119.230469 71.804688 119.976562 71.855469 120.699219 71.851562 C 126.476562 71.816406 132.265625 70.894531 138.410156 69.011719 C 138.816406 68.886719 139.199219 68.695312 139.664062 68.503906 C 137.542969 67.085938 135.457031 65.777344 133.320312 64.480469 L 132.457031 63.953125 L 131.589844 63.457031 C 131.011719 63.128906 130.433594 62.804688 129.839844 62.484375 C 128.664062 61.84375 127.457031 61.214844 126.214844 60.621094 C 125.601562 60.328125 124.964844 60.023438 124.335938 59.765625 C 123.707031 59.5 123.070312 59.25 122.414062 59.007812 C 121.117188 58.527344 119.777344 58.089844 118.378906 57.710938 C 117.082031 57.347656 115.800781 57.144531 114.476562 57.007812 C 113.15625 56.871094 111.804688 56.835938 110.429688 56.90625 C 109.066406 57.007812 107.695312 57.242188 106.289062 57.578125 C 105.589844 57.75 104.882812 57.953125 104.167969 58.183594 C 103.464844 58.4375 102.765625 58.730469 102.058594 59.050781 C 100.386719 59.828125 98.617188 60.632812 97.285156 61.980469 C 96.910156 62.347656 96.570312 62.734375 96.269531 63.144531 C 96.035156 63.460938 95.792969 63.894531 95.347656 63.929688 C 94.925781 63.964844 94.539062 63.863281 94.128906 63.84375 C 93.949219 63.839844 93.773438 63.832031 93.589844 63.824219 C 93.546875 63.8125 92.117188 63.804688 92.082031 63.835938 L 91.066406 65.109375 C 91.09375 65.089844 92.121094 65.058594 92.148438 65.058594 L 92.554688 65.050781 C 92.851562 65.046875 93.136719 65.054688 93.421875 65.074219 C 93.996094 65.117188 94.546875 65.203125 95.105469 65.320312 C 95.546875 65.417969 95.980469 65.535156 96.386719 65.6875 " fill-opacity="1" fill-rule="nonzero"/><path fill="#ffffff" d="M 260.542969 50.058594 C 260.613281 49.929688 260.660156 49.792969 260.691406 49.664062 C 276.167969 57.703125 290.164062 68.582031 301.886719 81.519531 C 313.605469 94.457031 323.046875 109.492188 329.496094 125.75 C 332.722656 133.875 335.214844 142.296875 336.957031 150.871094 L 337.566406 154.09375 L 337.867188 155.707031 C 337.972656 156.242188 338.03125 156.785156 338.117188 157.328125 L 338.585938 160.574219 L 338.820312 162.199219 C 338.894531 162.738281 338.933594 163.285156 338.992188 163.828125 L 339.550781 169.546875 L 339.597656 170.363281 C 339.703125 172.550781 339.824219 174.738281 339.914062 176.921875 C 340.34375 194.429688 337.605469 212.019531 331.859375 228.582031 C 326.132812 245.15625 317.414062 260.691406 306.261719 274.246094 C 295.121094 287.8125 281.546875 299.390625 266.355469 308.238281 C 258.757812 312.664062 250.769531 316.410156 242.5 319.421875 C 240.417969 320.125 238.34375 320.851562 236.25 321.535156 L 229.910156 323.371094 L 223.492188 324.910156 C 222.421875 325.167969 221.410156 325.375 220.367188 325.632812 C 219.339844 325.898438 218.3125 326.15625 217.292969 326.457031 C 209.132812 328.804688 201.339844 332.414062 194.363281 337.214844 C 190.90625 339.625 187.542969 342.3125 184.53125 345.222656 C 183.027344 346.683594 181.613281 348.210938 180.394531 349.828125 C 179.171875 351.433594 178.164062 353.160156 177.664062 354.863281 C 177.621094 355.015625 177.546875 355.152344 177.5 355.285156 C 177.453125 355.414062 177.390625 355.539062 177.316406 355.660156 C 177.242188 355.777344 177.160156 355.890625 177.070312 356 C 176.972656 356.105469 176.90625 356.203125 176.804688 356.292969 C 176.433594 356.660156 175.925781 356.945312 175.390625 356.953125 C 174.855469 356.960938 174.386719 356.648438 174.074219 356.050781 C 174 355.898438 173.917969 355.730469 173.882812 355.558594 C 173.84375 355.382812 173.820312 355.195312 173.808594 355 C 173.796875 354.804688 173.796875 354.597656 173.8125 354.386719 C 173.828125 354.175781 173.890625 353.976562 173.953125 353.769531 C 174.691406 351.363281 175.957031 349.34375 177.347656 347.523438 C 178.75 345.699219 180.300781 344.054688 181.914062 342.507812 C 185.15625 339.425781 188.621094 336.703125 192.289062 334.1875 C 199.644531 329.203125 207.820312 325.5 216.34375 323.121094 C 217.402344 322.816406 218.480469 322.554688 219.550781 322.285156 C 220.621094 322.03125 221.726562 321.808594 222.769531 321.566406 L 229.054688 320.113281 L 235.261719 318.367188 C 237.3125 317.71875 239.34375 317.015625 241.386719 316.34375 C 249.492188 313.464844 257.339844 309.863281 264.808594 305.582031 C 279.75 297.039062 293.148438 285.792969 304.191406 272.558594 C 315.242188 259.332031 323.941406 244.121094 329.707031 227.855469 C 335.484375 211.59375 338.332031 194.28125 338.039062 176.992188 C 337.96875 174.835938 337.859375 172.675781 337.777344 170.515625 L 337.738281 169.707031 L 337.667969 168.902344 L 337.519531 167.285156 L 337.230469 164.058594 C 337.175781 163.519531 337.140625 162.980469 337.074219 162.441406 L 336.855469 160.839844 L 336.414062 157.625 C 336.335938 157.089844 336.277344 156.554688 336.183594 156.019531 L 335.894531 154.421875 L 335.316406 151.230469 C 333.667969 142.742188 331.261719 134.398438 328.132812 126.328125 C 321.878906 110.1875 312.640625 95.207031 301.113281 82.273438 C 289.578125 69.34375 275.757812 58.417969 260.421875 50.289062 L 260.542969 50.058594 " fill-opacity="1" fill-rule="nonzero"/><path fill="#ffffff" d="M 259.898438 48.386719 C 259.011719 47.21875 258.125 46.023438 257.175781 44.847656 C 256.207031 43.714844 255.164062 42.621094 254 41.601562 C 253.488281 41.15625 252.972656 40.726562 252.445312 40.304688 C 251.917969 39.890625 251.367188 39.511719 250.820312 39.136719 C 249.71875 38.386719 248.585938 37.679688 247.433594 37.019531 C 246.859375 36.675781 246.261719 36.394531 245.667969 36.105469 C 245.070312 35.824219 244.46875 35.550781 243.859375 35.289062 C 243.25 35.027344 242.636719 34.777344 242.019531 34.535156 L 241.09375 34.183594 C 240.78125 34.070312 240.460938 33.980469 240.148438 33.882812 C 238.882812 33.496094 237.601562 33.152344 236.3125 32.851562 C 235.664062 32.703125 235.023438 32.539062 234.363281 32.445312 C 233.707031 32.339844 233.046875 32.246094 232.386719 32.160156 C 231.066406 31.992188 229.742188 31.867188 228.414062 31.773438 C 227.070312 31.734375 225.730469 31.738281 224.386719 31.773438 C 223.679688 31.796875 222.976562 31.820312 222.277344 31.863281 C 221.582031 31.886719 220.878906 31.988281 220.1875 32.066406 C 218.808594 32.230469 217.453125 32.433594 216.128906 32.691406 C 215.800781 32.753906 215.472656 32.816406 215.144531 32.890625 C 214.820312 32.972656 214.496094 33.0625 214.167969 33.144531 C 213.519531 33.324219 212.882812 33.515625 212.253906 33.714844 C 210.996094 34.121094 209.78125 34.582031 208.613281 35.105469 C 208.753906 35.222656 210.265625 35.769531 210.824219 36.011719 C 212.109375 36.574219 213.378906 37.125 214.640625 37.699219 L 218.359375 39.554688 L 220.195312 40.476562 C 220.796875 40.804688 221.402344 41.136719 222.003906 41.464844 C 223.210938 42.113281 224.414062 42.757812 225.605469 43.402344 C 231.984375 46.949219 238.371094 49.777344 245.582031 51.367188 C 246.214844 51.5 246.847656 51.605469 247.46875 51.714844 C 248.082031 51.835938 248.695312 51.933594 249.300781 52.015625 C 250.511719 52.175781 251.71875 52.246094 252.90625 52.222656 C 255.261719 52.214844 257.539062 51.871094 259.761719 50.988281 C 260.308594 50.757812 260.871094 50.503906 261.421875 50.285156 C 260.925781 49.640625 260.410156 49.023438 259.898438 48.386719 " fill-opacity="1" fill-rule="nonzero"/><path fill="#ffffff" d="M 212.945312 330.292969 C 213.75 329.921875 214.597656 329.632812 215.449219 329.363281 C 217.96875 328.527344 220.550781 327.9375 223.132812 327.722656 C 223.472656 327.6875 223.8125 327.65625 224.152344 327.621094 C 224.5 327.59375 224.851562 327.5625 225.203125 327.53125 C 225.902344 327.480469 226.605469 327.441406 227.304688 327.425781 C 228.007812 327.402344 228.714844 327.402344 229.421875 327.417969 C 230.128906 327.425781 230.84375 327.480469 231.546875 327.488281 C 233.25 327.539062 234.914062 327.675781 236.554688 327.882812 C 237.371094 327.988281 238.1875 328.128906 238.980469 328.246094 C 239.777344 328.355469 240.566406 328.488281 241.347656 328.632812 C 242.914062 328.925781 244.453125 329.285156 245.976562 329.707031 C 246.351562 329.816406 246.730469 329.925781 247.113281 330.039062 C 247.484375 330.140625 247.859375 330.246094 248.230469 330.351562 C 248.976562 330.566406 249.714844 330.796875 250.453125 331.042969 C 252.914062 331.847656 255.25 332.851562 257.464844 333.9375 C 259.675781 335.003906 261.792969 336.230469 263.871094 337.609375 C 262.726562 338.476562 261.347656 339.308594 259.785156 340.101562 C 258.207031 340.851562 256.429688 341.515625 254.535156 342.144531 C 253.585938 342.449219 252.613281 342.761719 251.605469 343.019531 C 250.585938 343.261719 249.546875 343.484375 248.492188 343.691406 C 247.433594 343.898438 246.363281 344.085938 245.28125 344.253906 C 244.742188 344.339844 244.195312 344.421875 243.652344 344.492188 C 243.105469 344.539062 242.550781 344.589844 241.996094 344.640625 C 239.789062 344.820312 237.570312 344.921875 235.40625 344.945312 C 233.21875 344.886719 231.085938 344.746094 229.050781 344.535156 C 228.542969 344.480469 228.042969 344.421875 227.550781 344.359375 L 227.175781 344.3125 C 227.054688 344.300781 226.917969 344.285156 226.851562 344.253906 L 226.355469 344.097656 C 225.695312 343.886719 225.039062 343.644531 224.40625 343.429688 C 223.128906 342.972656 221.914062 342.515625 220.78125 342.007812 C 218.882812 341.183594 217.089844 340.1875 215.535156 338.949219 C 213.988281 337.714844 212.664062 336.1875 211.78125 334.308594 C 211.492188 333.699219 211.117188 333.085938 210.515625 332.679688 C 209.921875 332.28125 209.15625 332.078125 208.445312 331.84375 C 207.570312 331.558594 206.675781 331.257812 205.769531 330.992188 C 205.550781 330.925781 205.265625 330.886719 205.082031 330.785156 C 205.320312 330.566406 205.699219 330.378906 205.992188 330.214844 L 206.953125 329.664062 C 207.144531 329.554688 207.625 329.175781 207.847656 329.175781 C 207.980469 329.175781 208.1875 329.347656 208.289062 329.402344 C 208.449219 329.492188 208.609375 329.585938 208.765625 329.679688 C 209.066406 329.859375 209.367188 330.042969 209.667969 330.222656 C 209.980469 330.410156 210.300781 330.582031 210.636719 330.734375 C 211.273438 331.015625 212.328125 330.601562 212.945312 330.292969 " fill-opacity="1" fill-rule="nonzero"/><path fill="#ffffff" d="M 213.203125 320.582031 C 213.671875 319.367188 213.984375 318.121094 214.355469 316.898438 C 214.722656 315.679688 215.132812 314.425781 215.8125 313.257812 C 216.25 312.503906 216.71875 311.761719 217.21875 311.027344 C 217.71875 310.308594 218.253906 309.609375 218.816406 308.917969 C 219.460938 308.214844 219.792969 307.578125 220.242188 306.949219 C 220.667969 306.3125 221.109375 305.699219 221.558594 305.101562 C 222.453125 303.902344 223.394531 302.789062 224.371094 301.714844 C 225.335938 300.589844 226.339844 299.535156 227.394531 298.546875 C 227.921875 298.054688 228.460938 297.574219 229.011719 297.117188 C 229.550781 296.621094 230.105469 296.140625 230.671875 295.679688 C 231.234375 295.214844 231.8125 294.769531 232.40625 294.339844 C 232.703125 294.125 233.003906 293.914062 233.308594 293.710938 L 233.765625 293.402344 L 234.21875 293.070312 C 235.433594 292.203125 236.707031 291.398438 238.046875 290.652344 C 238.726562 290.300781 239.382812 289.871094 240.074219 289.496094 C 240.765625 289.113281 241.46875 288.746094 242.195312 288.394531 C 242.574219 288.210938 242.984375 288.085938 243.460938 287.902344 C 242.875 290.390625 242.25 292.78125 241.578125 295.210938 C 240.085938 300.339844 238.320312 305.582031 235.214844 310.460938 C 232.378906 315 228.207031 318.652344 222.347656 320.761719 C 221.46875 321.085938 220.519531 321.398438 219.585938 321.65625 C 218.652344 321.933594 217.695312 322.113281 216.730469 322.226562 C 216.199219 322.277344 215.664062 322.289062 215.140625 322.261719 C 214.734375 322.242188 214.230469 322.171875 213.902344 322.5 C 213.589844 322.816406 213.417969 323.183594 213.167969 323.519531 C 213.054688 323.667969 212.945312 323.816406 212.835938 323.960938 C 212.8125 323.996094 211.949219 325.203125 211.90625 325.210938 C 211.90625 325.210938 211.5 325.238281 211.089844 325.265625 C 210.683594 325.300781 210.277344 325.34375 210.277344 325.34375 C 210.300781 325.335938 210.933594 324.472656 210.957031 324.453125 L 211.210938 324.117188 C 211.394531 323.875 211.566406 323.628906 211.730469 323.378906 C 212.054688 322.875 212.339844 322.347656 212.613281 321.835938 C 212.839844 321.421875 213.042969 321.007812 213.203125 320.582031 " fill-opacity="1" fill-rule="nonzero"/><path fill="#ffffff" d="M 254.195312 317.300781 C 255.023438 316.824219 255.921875 316.445312 256.796875 316.042969 C 258.082031 315.398438 259.359375 314.757812 260.660156 314.175781 C 261.949219 313.585938 263.277344 313.074219 264.558594 312.503906 C 267.148438 311.402344 269.847656 310.578125 272.566406 309.824219 C 274.222656 309.390625 275.882812 309.074219 277.5 308.789062 C 279.105469 308.476562 280.699219 308.246094 282.292969 308.089844 C 283.085938 308.007812 283.886719 307.949219 284.679688 307.902344 C 285.480469 307.863281 286.246094 307.792969 287.027344 307.769531 C 288.585938 307.699219 290.144531 307.699219 291.707031 307.753906 C 294.339844 307.871094 296.792969 308.058594 299.230469 308.460938 C 301.667969 308.859375 304.070312 309.441406 306.464844 310.167969 C 303.074219 314.761719 295.8125 319.929688 287.582031 323.226562 C 287.324219 323.332031 287.074219 323.4375 286.816406 323.546875 C 286.558594 323.644531 286.296875 323.738281 286.035156 323.832031 C 285.515625 324.019531 284.996094 324.203125 284.46875 324.386719 C 283.421875 324.746094 282.375 325.082031 281.335938 325.398438 C 279.277344 326.058594 277.160156 326.503906 275.144531 326.878906 C 271.136719 327.671875 267.316406 327.828125 264.234375 327.601562 C 263.582031 327.554688 262.949219 327.484375 262.335938 327.386719 C 261.714844 327.277344 261.113281 327.144531 260.535156 326.988281 C 259.375 326.675781 258.308594 326.269531 257.351562 325.769531 C 255.429688 324.761719 253.941406 323.363281 252.980469 321.511719 C 252.671875 320.910156 252.261719 320.320312 251.609375 319.949219 C 250.972656 319.59375 250.148438 319.414062 249.394531 319.167969 L 246.621094 318.257812 C 246.394531 318.179688 246.109375 318.121094 245.925781 318.007812 C 246.1875 317.800781 246.59375 317.648438 246.902344 317.488281 L 247.910156 316.960938 C 248.113281 316.855469 248.621094 316.496094 248.847656 316.496094 C 248.980469 316.496094 249.191406 316.667969 249.300781 316.722656 C 249.464844 316.8125 249.628906 316.902344 249.792969 316.996094 C 250.101562 317.167969 250.40625 317.339844 250.726562 317.5 C 251.054688 317.671875 251.390625 317.832031 251.753906 317.957031 C 252.425781 318.199219 253.546875 317.671875 254.195312 317.300781 " fill-opacity="1" fill-rule="nonzero"/><path fill="#ffffff" d="M 253.359375 307.65625 C 253.792969 305.144531 253.523438 302.667969 254.027344 300.226562 C 255.328125 294 257.316406 288.371094 260.207031 283.390625 C 263.03125 278.289062 266.730469 273.78125 271.425781 269.34375 C 271.722656 269.050781 272.074219 268.796875 272.464844 268.472656 C 272.558594 269.765625 272.652344 271.058594 272.703125 272.304688 C 272.742188 273.546875 272.765625 274.777344 272.789062 276.027344 C 272.808594 277.371094 272.8125 278.722656 272.796875 280.097656 C 272.792969 280.792969 272.757812 281.460938 272.714844 282.132812 C 272.675781 282.808594 272.628906 283.492188 272.570312 284.171875 C 272.324219 286.902344 271.941406 289.738281 271.136719 292.484375 C 270.777344 293.769531 270.339844 295.035156 269.800781 296.277344 C 269.667969 296.585938 269.527344 296.902344 269.378906 297.203125 C 269.226562 297.5 269.066406 297.792969 268.902344 298.085938 C 268.570312 298.671875 268.210938 299.253906 267.828125 299.820312 C 267.0625 300.960938 266.199219 302.085938 265.207031 303.144531 C 264.191406 304.160156 263.0625 305.136719 261.816406 306.066406 C 260.347656 307.199219 258.714844 308.199219 256.929688 308.730469 C 256.433594 308.878906 255.933594 308.980469 255.441406 309.039062 C 255.054688 309.085938 254.570312 309.082031 254.316406 309.449219 C 254.078125 309.8125 253.964844 310.191406 253.769531 310.542969 C 253.683594 310.699219 253.59375 310.855469 253.507812 311.007812 C 253.488281 311.042969 252.777344 312.304688 252.734375 312.320312 L 251.148438 312.558594 C 251.175781 312.554688 251.71875 311.667969 251.734375 311.640625 L 251.949219 311.292969 C 252.101562 311.035156 252.238281 310.777344 252.367188 310.519531 C 252.617188 309.996094 252.824219 309.472656 253.011719 308.941406 C 253.160156 308.519531 253.28125 308.097656 253.359375 307.65625 " fill-opacity="1" fill-rule="nonzero"/><path fill="#ffffff" d="M 292.539062 291.636719 C 293.175781 290.925781 293.902344 290.289062 294.601562 289.632812 C 295.121094 289.140625 295.652344 288.664062 296.179688 288.183594 C 296.691406 287.683594 297.203125 287.195312 297.722656 286.71875 C 298.765625 285.757812 299.832031 284.839844 300.929688 283.960938 C 302.011719 283.066406 303.078125 282.171875 304.222656 281.355469 C 304.785156 280.941406 305.363281 280.539062 305.953125 280.152344 C 306.25 279.960938 306.542969 279.769531 306.847656 279.585938 C 307.140625 279.394531 307.429688 279.203125 307.730469 279.007812 C 309.164062 278.09375 310.613281 277.269531 312.082031 276.523438 C 312.800781 276.164062 313.527344 275.804688 314.265625 275.4375 C 314.984375 275.082031 315.707031 274.746094 316.433594 274.429688 C 317.890625 273.792969 319.367188 273.226562 320.863281 272.722656 C 322.316406 272.1875 323.785156 271.710938 325.28125 271.292969 C 330.328125 269.914062 335.03125 269.207031 340.050781 269.167969 C 338.289062 274.605469 332.824219 281.609375 326.058594 287.246094 C 324.339844 288.632812 322.578125 289.964844 320.808594 291.199219 C 319 292.398438 317.148438 293.476562 315.363281 294.453125 C 313.597656 295.445312 311.765625 296.21875 310.0625 296.886719 C 308.347656 297.542969 306.746094 298.085938 305.21875 298.425781 C 300.054688 299.523438 295.648438 299 292.671875 296.011719 C 292.191406 295.527344 291.617188 295.089844 290.878906 294.921875 C 290.148438 294.761719 289.320312 294.847656 288.53125 294.847656 L 285.644531 294.839844 C 285.410156 294.839844 285.117188 294.875 284.910156 294.820312 C 285.097656 294.539062 285.429688 294.265625 285.667969 294.019531 L 286.457031 293.203125 C 286.613281 293.039062 286.980469 292.535156 287.195312 292.460938 C 287.316406 292.421875 287.574219 292.519531 287.691406 292.539062 C 287.867188 292.574219 288.054688 292.613281 288.238281 292.648438 C 288.585938 292.722656 288.9375 292.796875 289.292969 292.863281 C 289.660156 292.933594 290.035156 292.988281 290.425781 293.003906 C 291.15625 293.058594 292.039062 292.191406 292.539062 291.636719 " fill-opacity="1" fill-rule="nonzero"/><path fill="#ffffff" d="M 289.3125 283.261719 C 289.015625 280.785156 287.984375 278.480469 287.714844 275.988281 C 287.542969 274.390625 287.433594 272.835938 287.398438 271.308594 C 287.390625 270.554688 287.363281 269.777344 287.359375 269.011719 C 287.359375 268.25 287.371094 267.496094 287.402344 266.746094 C 287.460938 265.246094 287.621094 263.808594 287.800781 262.347656 C 287.960938 260.875 288.195312 259.4375 288.515625 258.023438 C 288.851562 256.632812 289.171875 255.191406 289.589844 253.789062 C 289.796875 253.085938 290.027344 252.394531 290.277344 251.703125 C 290.40625 251.359375 290.535156 251.011719 290.664062 250.667969 C 290.78125 250.316406 290.90625 249.964844 291.039062 249.609375 C 291.554688 248.207031 292.179688 246.828125 292.859375 245.445312 C 293.488281 244.027344 294.203125 242.625 295.019531 241.226562 C 295.238281 240.867188 295.492188 240.515625 295.757812 240.082031 C 296.265625 241.304688 296.683594 242.472656 297.105469 243.652344 C 297.527344 244.828125 297.929688 246 298.332031 247.191406 C 299.226562 249.773438 299.945312 252.332031 300.566406 255.03125 C 300.867188 256.371094 301.160156 257.765625 301.34375 259.148438 C 301.523438 260.53125 301.648438 261.945312 301.703125 263.394531 C 301.734375 264.066406 301.738281 264.738281 301.71875 265.414062 C 301.703125 266.085938 301.667969 266.765625 301.578125 267.421875 C 301.40625 268.742188 301.140625 270.074219 300.769531 271.40625 C 300.578125 272.070312 300.367188 272.734375 300.121094 273.402344 C 299.871094 274.0625 299.566406 274.703125 299.246094 275.347656 C 298.597656 276.636719 297.828125 277.925781 296.929688 279.199219 C 295.824219 280.675781 294.59375 282.15625 293.070312 283.226562 C 292.640625 283.511719 292.210938 283.777344 291.75 283.976562 C 291.386719 284.125 290.914062 284.261719 290.773438 284.679688 C 290.644531 285.085938 290.65625 285.480469 290.578125 285.882812 C 290.546875 286.0625 290.507812 286.238281 290.476562 286.410156 C 290.46875 286.453125 290.183594 287.882812 290.148438 287.910156 L 288.722656 288.640625 C 288.746094 288.621094 288.988281 287.605469 288.992188 287.574219 L 289.085938 287.175781 C 289.152344 286.882812 289.207031 286.589844 289.242188 286.300781 C 289.324219 285.722656 289.355469 285.152344 289.371094 284.589844 C 289.378906 284.140625 289.367188 283.691406 289.3125 283.261719 " fill-opacity="1" fill-rule="nonzero"/><path fill="#ffffff" d="M 320.25 258.417969 C 320.660156 257.558594 321.214844 256.761719 321.679688 255.921875 C 322.367188 254.664062 323.082031 253.433594 323.828125 252.234375 C 324.203125 251.632812 324.582031 251.035156 324.976562 250.449219 C 325.339844 249.847656 325.710938 249.253906 326.097656 248.667969 C 326.867188 247.496094 327.683594 246.359375 328.558594 245.253906 C 329.003906 244.710938 329.40625 244.140625 329.851562 243.597656 C 330.289062 243.054688 330.746094 242.519531 331.214844 241.988281 C 335.808594 236.914062 340.59375 232.914062 345.890625 229.605469 C 347.015625 228.917969 348.085938 228.261719 349.175781 227.660156 C 350.269531 227.054688 351.378906 226.496094 352.503906 225.980469 C 353.625 225.464844 354.765625 224.992188 355.925781 224.554688 C 356.507812 224.335938 357.089844 224.125 357.679688 223.925781 C 358.261719 223.726562 358.839844 223.527344 359.433594 223.34375 C 359.425781 223.699219 359.414062 224.066406 359.378906 224.449219 C 359.339844 224.820312 359.289062 225.207031 359.230469 225.597656 C 359.105469 226.382812 358.945312 227.203125 358.746094 228.054688 C 358.550781 228.902344 358.3125 229.777344 358.042969 230.675781 C 357.90625 231.125 357.765625 231.578125 357.613281 232.035156 C 357.453125 232.492188 357.265625 232.949219 357.082031 233.410156 C 356.34375 235.257812 355.472656 237.160156 354.507812 239.066406 C 353.496094 240.960938 352.339844 242.839844 351.140625 244.683594 C 350.839844 245.136719 350.535156 245.597656 350.226562 246.054688 C 349.914062 246.507812 349.574219 246.945312 349.242188 247.386719 C 348.574219 248.261719 347.894531 249.121094 347.207031 249.960938 C 346.523438 250.800781 345.824219 251.617188 345.128906 252.40625 C 344.402344 253.179688 343.664062 253.925781 342.929688 254.636719 C 342.195312 255.351562 341.46875 256.035156 340.742188 256.683594 C 340.007812 257.320312 339.320312 257.949219 338.566406 258.496094 C 337.089844 259.605469 335.664062 260.554688 334.320312 261.316406 C 332.082031 262.621094 329.761719 263.40625 327.617188 263.648438 C 325.460938 263.890625 323.445312 263.5625 321.609375 262.570312 C 321.011719 262.246094 320.339844 261.988281 319.597656 262.046875 C 318.859375 262.101562 318.113281 262.433594 317.34375 262.648438 L 314.535156 263.441406 C 314.308594 263.503906 314.039062 263.617188 313.820312 263.625 C 313.925781 263.308594 314.171875 262.957031 314.335938 262.648438 L 314.875 261.652344 C 314.984375 261.453125 315.199219 260.871094 315.386719 260.746094 C 315.496094 260.667969 315.769531 260.695312 315.882812 260.679688 C 316.066406 260.660156 316.25 260.640625 316.429688 260.621094 C 316.785156 260.589844 317.136719 260.5625 317.488281 260.519531 C 317.855469 260.476562 318.226562 260.417969 318.597656 260.320312 C 319.285156 260.148438 319.921875 259.085938 320.25 258.417969 " fill-opacity="1" fill-rule="nonzero"/><path fill="#ffffff" d="M 314.957031 251.40625 C 313.917969 249.082031 312.304688 247.183594 311.367188 244.878906 C 311.0625 244.140625 310.78125 243.410156 310.515625 242.679688 C 310.230469 241.9375 309.960938 241.203125 309.714844 240.46875 C 309.21875 239 308.792969 237.546875 308.457031 236.101562 C 308.289062 235.367188 308.125 234.640625 307.964844 233.929688 C 307.804688 233.199219 307.664062 232.476562 307.542969 231.753906 C 307.425781 231.027344 307.324219 230.308594 307.246094 229.585938 C 307.160156 228.863281 307.128906 228.15625 307.039062 227.417969 C 306.902344 225.960938 306.84375 224.507812 306.867188 223.050781 C 306.875 222.691406 306.886719 222.324219 306.90625 221.960938 C 306.90625 221.59375 306.910156 221.222656 306.921875 220.851562 C 306.941406 220.113281 306.980469 219.371094 307.042969 218.628906 C 307.109375 217.882812 307.195312 217.144531 307.304688 216.394531 C 307.390625 215.644531 307.46875 214.878906 307.582031 214.113281 C 307.695312 213.351562 307.832031 212.582031 307.988281 211.8125 C 308.074219 211.425781 308.15625 211.039062 308.242188 210.648438 C 308.308594 210.253906 308.382812 209.859375 308.460938 209.460938 C 308.546875 209.046875 308.695312 208.644531 308.839844 208.152344 C 309.644531 209.175781 310.425781 210.183594 311.191406 211.199219 C 311.945312 212.210938 312.632812 213.210938 313.347656 214.234375 C 314.117188 215.335938 314.878906 216.453125 315.625 217.601562 C 315.996094 218.175781 316.375 218.757812 316.726562 219.34375 C 317.074219 219.925781 317.410156 220.515625 317.742188 221.113281 C 318.402344 222.3125 319.039062 223.550781 319.632812 224.835938 C 319.929688 225.476562 320.214844 226.128906 320.488281 226.800781 C 320.757812 227.460938 320.984375 228.132812 321.210938 228.816406 C 321.628906 230.078125 321.964844 231.371094 322.207031 232.703125 C 322.328125 233.367188 322.4375 234.046875 322.503906 234.722656 C 322.554688 235.394531 322.578125 236.074219 322.578125 236.761719 C 322.578125 238.136719 322.472656 239.550781 322.25 240.988281 C 322.160156 241.714844 321.960938 242.414062 321.769531 243.140625 C 321.570312 243.859375 321.34375 244.585938 321.082031 245.324219 C 320.765625 246.195312 320.445312 247.082031 320.050781 247.933594 C 319.617188 248.765625 319.125 249.566406 318.527344 250.289062 C 318.199219 250.6875 317.84375 251.050781 317.464844 251.375 C 317.167969 251.632812 316.761719 251.902344 316.757812 252.351562 C 316.753906 252.78125 316.886719 253.164062 316.9375 253.574219 C 316.957031 253.753906 316.96875 253.929688 316.980469 254.109375 C 316.984375 254.148438 317.101562 255.59375 317.074219 255.628906 L 315.886719 256.722656 C 315.90625 256.695312 315.867188 255.65625 315.863281 255.628906 L 315.84375 255.21875 C 315.828125 254.925781 315.796875 254.632812 315.757812 254.34375 C 315.675781 253.773438 315.550781 253.222656 315.410156 252.679688 C 315.28125 252.238281 315.136719 251.804688 314.957031 251.40625 " fill-opacity="1" fill-rule="nonzero"/><g clip-path="url(#59aca072f6)"><path fill="#ffffff" d="M 338.015625 216.21875 C 338.148438 215.277344 338.394531 214.339844 338.613281 213.402344 C 338.761719 212.699219 338.957031 212.015625 339.097656 211.316406 C 339.238281 210.617188 339.390625 209.925781 339.554688 209.234375 C 339.882812 207.863281 340.253906 206.5 340.675781 205.160156 C 341.050781 203.804688 341.453125 202.46875 341.929688 201.152344 C 342.167969 200.492188 342.421875 199.835938 342.695312 199.183594 C 342.832031 198.859375 342.972656 198.535156 343.117188 198.210938 C 343.25 197.890625 343.386719 197.566406 343.519531 197.238281 C 344.851562 194.113281 346.527344 191.253906 348.15625 188.558594 C 348.996094 187.210938 349.898438 185.914062 350.851562 184.65625 C 351.308594 184.042969 351.78125 183.421875 352.257812 182.792969 C 352.730469 182.183594 353.214844 181.582031 353.710938 180.988281 C 354.542969 179.992188 355.394531 179.042969 356.273438 178.140625 C 357.148438 177.230469 358.078125 176.363281 358.960938 175.535156 C 360.753906 173.875 362.675781 172.355469 364.71875 170.929688 C 365.101562 172.304688 365.375 173.882812 365.542969 175.617188 C 365.683594 177.351562 365.640625 179.242188 365.535156 181.222656 C 365.476562 182.210938 365.398438 183.230469 365.292969 184.257812 C 365.15625 185.285156 364.976562 186.332031 364.785156 187.386719 C 364.59375 188.445312 364.375 189.507812 364.136719 190.570312 C 364.015625 191.101562 363.890625 191.632812 363.765625 192.167969 C 363.644531 192.703125 363.46875 193.234375 363.3125 193.761719 C 362.675781 195.878906 361.960938 197.976562 361.191406 199.992188 C 360.363281 202.003906 359.433594 203.9375 358.5 205.75 C 358.269531 206.203125 358.03125 206.648438 357.789062 207.085938 C 357.558594 207.523438 357.3125 207.949219 357.046875 208.363281 C 356.523438 209.195312 356.003906 209.992188 355.480469 210.746094 C 354.429688 212.257812 353.378906 213.597656 352.339844 214.738281 C 350.503906 216.636719 348.589844 218.101562 346.628906 218.984375 C 344.664062 219.871094 342.648438 220.167969 340.589844 219.773438 C 339.917969 219.644531 339.195312 219.597656 338.488281 219.875 C 337.789062 220.148438 337.148438 220.683594 336.5 221.125 L 334.09375 222.734375 C 333.894531 222.859375 333.671875 223.054688 333.472656 223.128906 C 333.46875 222.792969 333.59375 222.378906 333.65625 222.035156 L 333.851562 220.921875 C 333.894531 220.699219 333.917969 220.074219 334.058594 219.894531 C 334.136719 219.789062 334.402344 219.730469 334.507812 219.683594 C 334.679688 219.613281 334.851562 219.539062 335.027344 219.464844 C 335.359375 219.332031 335.695312 219.199219 336.027344 219.058594 C 336.367188 218.90625 336.707031 218.738281 337.042969 218.542969 C 337.65625 218.167969 337.914062 216.957031 338.015625 216.21875 " fill-opacity="1" fill-rule="nonzero"/></g><path fill="#ffffff" d="M 330.851562 211.128906 C 330.4375 210.65625 330 210.222656 329.550781 209.800781 C 329.097656 209.382812 328.613281 208.976562 328.140625 208.574219 C 327.191406 207.761719 326.257812 206.949219 325.445312 205.996094 C 324.414062 204.773438 323.453125 203.539062 322.570312 202.300781 C 321.675781 201.054688 320.78125 199.789062 320.007812 198.519531 C 319.617188 197.878906 319.246094 197.242188 318.894531 196.601562 C 318.714844 196.277344 318.546875 195.953125 318.378906 195.632812 C 318.296875 195.46875 318.214844 195.308594 318.128906 195.144531 C 318.042969 194.984375 317.957031 194.820312 317.871094 194.65625 C 317.179688 193.347656 316.566406 192.023438 316.03125 190.679688 C 315.757812 190.007812 315.539062 189.332031 315.273438 188.644531 C 315.011719 187.960938 314.769531 187.269531 314.546875 186.570312 C 314.320312 185.875 314.117188 185.171875 313.9375 184.460938 C 313.753906 183.75 313.605469 183.03125 313.40625 182.304688 C 313.039062 180.84375 312.753906 179.355469 312.554688 177.828125 C 312.515625 177.445312 312.449219 177.0625 312.382812 176.675781 C 312.320312 176.289062 312.261719 175.898438 312.210938 175.507812 C 312.105469 174.722656 312.023438 173.921875 311.957031 173.117188 C 311.921875 172.695312 311.957031 172.265625 311.960938 171.75 C 314.066406 173.210938 316.066406 174.679688 318.078125 176.195312 C 318.617188 176.605469 319.175781 177.019531 319.691406 177.4375 L 321.246094 178.71875 C 322.28125 179.585938 323.3125 180.484375 324.328125 181.429688 C 326.402344 183.3125 328.226562 185.371094 329.96875 187.714844 C 330.367188 188.253906 330.75 188.804688 331.117188 189.375 C 331.300781 189.660156 331.480469 189.949219 331.648438 190.238281 C 331.808594 190.527344 331.964844 190.824219 332.117188 191.117188 C 332.71875 192.3125 333.246094 193.5625 333.683594 194.875 C 333.902344 195.53125 334.101562 196.203125 334.277344 196.890625 C 334.4375 197.578125 334.542969 198.277344 334.640625 198.996094 C 334.824219 200.429688 334.90625 201.929688 334.878906 203.484375 C 334.804688 205.335938 334.601562 207.25 333.933594 208.992188 C 333.746094 209.46875 333.523438 209.929688 333.265625 210.355469 C 333.0625 210.6875 332.738281 211.058594 332.855469 211.488281 C 332.972656 211.894531 333.203125 212.21875 333.367188 212.59375 C 333.4375 212.761719 333.507812 212.925781 333.574219 213.089844 C 333.589844 213.125 334.152344 214.472656 334.136719 214.515625 L 333.359375 215.921875 C 333.371094 215.890625 333.003906 214.910156 332.992188 214.886719 L 332.847656 214.5 C 332.738281 214.21875 332.621094 213.949219 332.488281 213.6875 C 332.234375 213.164062 331.941406 212.671875 331.640625 212.199219 C 331.394531 211.816406 331.136719 211.457031 330.851562 211.128906 " fill-opacity="1" fill-rule="nonzero"/><path fill="#ffffff" d="M 342.28125 172.609375 C 342.140625 171.667969 342.117188 170.699219 342.0625 169.742188 C 341.941406 168.316406 341.800781 166.902344 341.738281 165.488281 C 341.699219 164.78125 341.675781 164.078125 341.660156 163.371094 C 341.652344 162.664062 341.652344 161.960938 341.625 161.261719 C 341.585938 159.859375 341.609375 158.464844 341.695312 157.0625 C 341.734375 156.363281 341.820312 155.660156 341.863281 154.964844 C 341.914062 154.265625 341.984375 153.566406 342.074219 152.867188 C 342.277344 151.175781 342.597656 149.523438 342.925781 147.917969 C 343.226562 146.320312 343.605469 144.753906 344.046875 143.21875 C 344.269531 142.453125 344.507812 141.691406 344.757812 140.941406 C 344.984375 140.191406 345.226562 139.453125 345.484375 138.71875 C 346.003906 137.25 346.582031 135.800781 347.214844 134.371094 C 347.753906 133.171875 348.273438 132.027344 348.835938 130.910156 C 349.402344 129.796875 350.003906 128.710938 350.644531 127.652344 C 351.917969 125.53125 353.359375 123.511719 354.871094 121.570312 C 357.929688 126.390625 360.046875 135.035156 360.054688 143.863281 C 360.054688 148.273438 359.710938 152.691406 358.875 156.699219 C 358.675781 157.699219 358.464844 158.671875 358.234375 159.613281 C 358.015625 160.550781 357.707031 161.464844 357.425781 162.335938 C 356.847656 164.082031 356.210938 165.671875 355.539062 167.054688 C 355.257812 167.640625 354.972656 168.203125 354.648438 168.734375 C 354.316406 169.269531 353.96875 169.777344 353.613281 170.257812 C 352.898438 171.21875 352.132812 172.054688 351.3125 172.761719 C 349.679688 174.179688 347.835938 175.050781 345.757812 175.269531 C 345.085938 175.339844 344.382812 175.507812 343.800781 175.972656 C 343.238281 176.4375 342.78125 177.132812 342.273438 177.746094 L 340.410156 179.984375 C 340.257812 180.164062 340.097656 180.410156 339.925781 180.539062 C 339.828125 180.21875 339.828125 179.789062 339.792969 179.445312 L 339.675781 178.316406 C 339.652344 178.089844 339.5 177.488281 339.585938 177.277344 C 339.632812 177.15625 339.871094 177.019531 339.960938 176.941406 C 340.101562 176.828125 340.246094 176.707031 340.390625 176.585938 C 340.660156 176.359375 340.933594 176.140625 341.203125 175.902344 C 341.480469 175.664062 341.75 175.402344 342.003906 175.117188 C 342.46875 174.578125 342.394531 173.347656 342.28125 172.609375 " fill-opacity="1" fill-rule="nonzero"/><path fill="#ffffff" d="M 333.96875 169.8125 C 331.792969 168.484375 329.386719 167.824219 327.296875 166.453125 C 326.628906 166.019531 325.976562 165.574219 325.34375 165.121094 C 324.710938 164.667969 324.109375 164.203125 323.472656 163.742188 C 322.226562 162.808594 321.046875 161.84375 319.941406 160.84375 C 319.390625 160.347656 318.851562 159.839844 318.335938 159.320312 C 317.800781 158.808594 317.261719 158.285156 316.753906 157.757812 C 315.730469 156.695312 314.777344 155.59375 313.898438 154.457031 C 310.199219 149.921875 307.359375 144.808594 304.941406 138.8125 C 304.78125 138.417969 304.675781 138 304.523438 137.511719 C 306.988281 138.292969 309.390625 139.097656 311.675781 140 C 312.925781 140.476562 314.183594 140.972656 315.449219 141.503906 C 316.078125 141.765625 316.71875 142.035156 317.339844 142.320312 C 317.953125 142.605469 318.5625 142.902344 319.171875 143.210938 C 320.398438 143.828125 321.621094 144.496094 322.835938 145.21875 C 323.441406 145.585938 324.0625 145.957031 324.644531 146.359375 C 325.226562 146.765625 325.804688 147.183594 326.375 147.621094 C 327.4375 148.429688 328.449219 149.308594 329.40625 150.273438 C 329.644531 150.511719 329.882812 150.757812 330.113281 151.007812 C 330.335938 151.257812 330.546875 151.515625 330.761719 151.78125 C 331.1875 152.304688 331.59375 152.851562 331.984375 153.421875 C 332.757812 154.558594 333.503906 155.777344 334.105469 157.09375 C 334.679688 158.417969 335.179688 159.828125 335.589844 161.335938 C 335.707031 161.777344 335.828125 162.234375 335.9375 162.691406 C 336.039062 163.148438 336.109375 163.609375 336.175781 164.078125 C 336.300781 165.007812 336.351562 165.945312 336.269531 166.878906 C 336.226562 167.386719 336.144531 167.894531 336.019531 168.375 C 335.921875 168.753906 335.742188 169.203125 335.992188 169.578125 C 336.242188 169.933594 336.539062 170.179688 336.804688 170.488281 C 336.917969 170.625 337.027344 170.765625 337.140625 170.902344 C 337.167969 170.933594 338.082031 172.058594 338.078125 172.105469 L 337.726562 173.675781 C 337.730469 173.640625 337.101562 172.816406 337.085938 172.789062 L 336.839844 172.464844 C 336.65625 172.226562 336.46875 172.003906 336.269531 171.789062 C 335.875 171.363281 335.460938 170.976562 335.039062 170.609375 C 334.691406 170.316406 334.355469 170.046875 333.96875 169.8125 " fill-opacity="1" fill-rule="nonzero"/><path fill="#ffffff" d="M 333.851562 130.71875 C 333.449219 129.863281 333.121094 128.949219 332.78125 128.054688 C 330.808594 122.6875 328.902344 117.46875 328.097656 111.867188 C 327.503906 108.53125 327.328125 105.238281 327.238281 102.085938 C 327.210938 100.503906 327.277344 98.914062 327.367188 97.355469 C 327.4375 95.808594 327.574219 94.265625 327.765625 92.722656 C 327.921875 91.433594 328.136719 90.164062 328.371094 88.933594 C 328.589844 87.707031 328.855469 86.5 329.167969 85.3125 C 329.777344 82.925781 330.578125 80.59375 331.515625 78.28125 C 332.582031 79.21875 333.648438 80.410156 334.71875 81.78125 C 335.253906 82.464844 335.789062 83.199219 336.3125 83.972656 C 336.8125 84.765625 337.308594 85.59375 337.792969 86.457031 C 339.78125 89.886719 341.460938 93.964844 342.773438 98.160156 C 343.386719 100.277344 343.953125 102.40625 344.382812 104.527344 C 344.773438 106.667969 345.082031 108.773438 345.292969 110.796875 C 345.351562 111.296875 345.382812 111.800781 345.40625 112.304688 C 345.429688 112.804688 345.453125 113.300781 345.464844 113.789062 C 345.492188 114.761719 345.496094 115.710938 345.476562 116.625 C 345.453125 117.539062 345.417969 118.417969 345.335938 119.261719 C 345.242188 120.113281 345.125 120.921875 344.988281 121.6875 C 344.75 122.976562 344.4375 124.1875 344.039062 125.296875 C 343.644531 126.410156 343.167969 127.421875 342.558594 128.335938 C 341.363281 130.15625 339.824219 131.511719 337.890625 132.300781 C 337.257812 132.558594 336.632812 132.917969 336.199219 133.53125 C 335.765625 134.136719 335.539062 134.929688 335.242188 135.648438 L 334.695312 136.980469 L 334.097656 138.308594 C 334 138.523438 333.914062 138.808594 333.78125 138.980469 C 333.605469 138.699219 333.492188 138.28125 333.363281 137.960938 C 333.230469 137.609375 333.085938 137.265625 332.925781 136.921875 C 332.835938 136.714844 332.503906 136.183594 332.519531 135.960938 C 332.523438 135.828125 332.714844 135.632812 332.777344 135.535156 C 332.878906 135.386719 332.980469 135.230469 333.082031 135.078125 C 333.285156 134.78125 333.492188 134.492188 333.683594 134.191406 C 333.886719 133.878906 334.078125 133.558594 334.246094 133.210938 C 334.550781 132.5625 334.152344 131.398438 333.851562 130.71875 " fill-opacity="1" fill-rule="nonzero"/><path fill="#ffffff" d="M 325.941406 130.054688 C 324.722656 129.714844 323.5 129.554688 322.28125 129.382812 C 321.671875 129.300781 321.066406 129.210938 320.464844 129.097656 C 319.859375 128.984375 319.238281 128.859375 318.636719 128.679688 C 317.085938 128.21875 315.601562 127.714844 314.167969 127.160156 C 313.453125 126.878906 312.75 126.585938 312.0625 126.285156 C 311.355469 125.988281 310.65625 125.683594 309.976562 125.363281 C 308.617188 124.726562 307.308594 124.035156 306.066406 123.285156 C 304.777344 122.558594 303.523438 121.785156 302.34375 120.945312 C 297.535156 117.621094 293.351562 113.5 289.304688 108.398438 C 289.035156 108.070312 288.816406 107.699219 288.523438 107.277344 C 289.824219 107.304688 291.117188 107.332031 292.371094 107.398438 C 293.617188 107.472656 294.851562 107.558594 296.101562 107.65625 C 297.445312 107.757812 298.800781 107.875 300.171875 108.019531 C 301.507812 108.1875 302.855469 108.386719 304.214844 108.628906 C 305.570312 108.875 306.949219 109.15625 308.324219 109.511719 C 309.667969 109.882812 311.023438 110.316406 312.386719 110.832031 C 317.433594 112.703125 321.871094 116.070312 325.136719 121.421875 C 326.054688 123.03125 327 124.722656 327.382812 126.558594 C 327.472656 127.070312 327.523438 127.582031 327.527344 128.085938 C 327.53125 128.480469 327.480469 128.96875 327.820312 129.257812 C 328.144531 129.535156 328.519531 129.683594 328.867188 129.910156 C 329.015625 130.007812 329.167969 130.109375 329.316406 130.207031 C 329.351562 130.230469 330.574219 131.050781 330.585938 131.089844 C 330.585938 131.089844 330.597656 131.191406 330.609375 131.34375 C 330.621094 131.492188 330.640625 131.691406 330.648438 131.894531 C 330.664062 132.300781 330.683594 132.707031 330.683594 132.707031 C 330.679688 132.675781 329.859375 132.046875 329.832031 132.027344 C 329.726562 131.945312 329.613281 131.863281 329.5 131.785156 C 329.253906 131.609375 329.003906 131.449219 328.75 131.300781 C 328.238281 131.003906 327.722656 130.75 327.199219 130.523438 C 326.785156 130.335938 326.367188 130.175781 325.941406 130.054688 " fill-opacity="1" fill-rule="nonzero"/><path fill="#ffffff" d="M 313.347656 91.542969 C 312.699219 90.851562 312.132812 90.066406 311.539062 89.3125 C 311.101562 88.75 310.671875 88.179688 310.25 87.613281 L 309.621094 86.75 L 308.972656 85.914062 C 308.125 84.789062 307.308594 83.644531 306.539062 82.46875 C 306.167969 81.875 305.773438 81.300781 305.390625 80.714844 C 305.011719 80.128906 304.648438 79.539062 304.292969 78.933594 C 303.941406 78.332031 303.601562 77.71875 303.277344 77.09375 C 302.960938 76.480469 302.640625 75.859375 302.3125 75.21875 C 301.550781 73.699219 300.882812 72.175781 300.292969 70.640625 C 299.6875 69.117188 299.121094 67.632812 298.648438 66.109375 C 297.722656 63.042969 296.9375 60.082031 296.429688 56.996094 C 296.320312 56.355469 296.222656 55.714844 296.140625 55.082031 C 296.046875 54.457031 295.960938 53.835938 295.890625 53.214844 C 295.75 51.972656 295.660156 50.742188 295.605469 49.507812 C 295.511719 47.042969 295.605469 44.5625 295.804688 42.117188 C 297.128906 42.664062 298.476562 43.515625 299.894531 44.515625 C 300.601562 45.019531 301.320312 45.570312 302.042969 46.15625 C 302.40625 46.457031 302.777344 46.75 303.132812 47.078125 C 303.488281 47.402344 303.84375 47.738281 304.199219 48.082031 C 304.910156 48.769531 305.625 49.496094 306.335938 50.242188 C 306.691406 50.617188 307.046875 51 307.402344 51.390625 C 307.578125 51.585938 307.75 51.78125 307.929688 51.976562 C 308.097656 52.183594 308.269531 52.390625 308.4375 52.59375 C 309.789062 54.257812 311.113281 56.003906 312.359375 57.800781 C 313.566406 59.652344 314.703125 61.539062 315.75 63.425781 C 316.765625 65.335938 317.648438 67.285156 318.441406 69.152344 C 318.636719 69.621094 318.828125 70.085938 319.007812 70.546875 C 319.175781 71.019531 319.335938 71.488281 319.492188 71.953125 C 319.800781 72.878906 320.078125 73.78125 320.324219 74.664062 C 320.570312 75.542969 320.785156 76.398438 320.964844 77.226562 C 321.148438 78.046875 321.253906 78.871094 321.347656 79.640625 C 321.640625 82.246094 321.574219 84.625 320.976562 86.703125 C 320.371094 88.796875 319.289062 90.546875 317.679688 91.867188 C 317.148438 92.300781 316.652344 92.828125 316.417969 93.542969 C 316.1875 94.246094 316.199219 95.074219 316.125 95.847656 L 315.988281 97.28125 C 315.941406 97.757812 315.875 98.246094 315.816406 98.722656 C 315.785156 98.957031 315.785156 99.257812 315.710938 99.460938 C 315.457031 99.242188 315.226562 98.878906 315.011719 98.609375 C 314.78125 98.3125 314.53125 98.027344 314.28125 97.742188 C 314.132812 97.570312 313.664062 97.164062 313.613281 96.945312 C 313.582031 96.816406 313.703125 96.578125 313.734375 96.464844 C 313.789062 96.289062 313.84375 96.109375 313.898438 95.933594 C 314.003906 95.59375 314.113281 95.257812 314.210938 94.910156 C 314.3125 94.554688 314.402344 94.191406 314.457031 93.808594 C 314.558594 93.101562 313.84375 92.097656 313.347656 91.542969 " fill-opacity="1" fill-rule="nonzero"/><path fill="#ffffff" d="M 305.597656 93.226562 C 303.070312 93.292969 300.738281 94.03125 298.199219 94.058594 C 294.96875 94.09375 291.953125 93.828125 288.949219 93.425781 C 288.203125 93.316406 287.472656 93.1875 286.75 93.046875 C 286.023438 92.90625 285.324219 92.730469 284.589844 92.582031 C 283.140625 92.265625 281.730469 91.875 280.351562 91.414062 C 274.773438 89.640625 269.546875 86.914062 264.1875 83.210938 C 263.832031 82.96875 263.519531 82.675781 263.117188 82.351562 C 265.617188 81.648438 268.066406 81.015625 270.484375 80.507812 C 273.101562 79.941406 275.824219 79.371094 278.53125 79.082031 C 279.898438 78.925781 281.292969 78.804688 282.714844 78.742188 C 283.074219 78.726562 283.429688 78.71875 283.785156 78.707031 C 284.136719 78.710938 284.492188 78.714844 284.84375 78.71875 C 285.554688 78.730469 286.269531 78.761719 286.996094 78.8125 C 288.332031 78.902344 289.671875 79.078125 291.003906 79.347656 C 292.308594 79.65625 293.605469 80.058594 294.894531 80.574219 C 295.542969 80.828125 296.183594 81.113281 296.824219 81.425781 C 297.464844 81.738281 298.066406 82.113281 298.683594 82.496094 C 299.902344 83.28125 301.121094 84.167969 302.296875 85.207031 C 303.648438 86.472656 305.027344 87.832031 305.945312 89.464844 C 306.195312 89.917969 306.382812 90.402344 306.539062 90.878906 C 306.65625 91.253906 306.75 91.738281 307.15625 91.914062 C 307.546875 92.089844 307.949219 92.117188 308.347656 92.234375 C 308.515625 92.285156 308.6875 92.335938 308.863281 92.386719 C 308.898438 92.398438 310.308594 92.824219 310.332031 92.863281 C 310.332031 92.863281 310.484375 93.234375 310.632812 93.609375 C 310.777344 93.988281 310.910156 94.371094 310.910156 94.371094 C 310.894531 94.339844 309.929688 93.980469 309.890625 93.976562 L 309.5 93.839844 C 309.210938 93.746094 308.925781 93.664062 308.636719 93.601562 C 308.066406 93.464844 307.496094 93.375 306.933594 93.304688 C 306.484375 93.25 306.035156 93.222656 305.597656 93.226562 " fill-opacity="1" fill-rule="nonzero"/><g clip-path="url(#09585429b8)"><path fill="#ffffff" d="M 282.453125 60.699219 C 281.636719 60.214844 280.871094 59.628906 280.09375 59.074219 C 279.511719 58.660156 278.941406 58.238281 278.375 57.8125 C 277.808594 57.386719 277.226562 56.996094 276.660156 56.574219 C 275.527344 55.738281 274.425781 54.871094 273.359375 53.960938 C 272.277344 53.085938 271.210938 52.195312 270.195312 51.234375 C 269.6875 50.757812 269.1875 50.269531 268.703125 49.761719 C 268.210938 49.265625 267.710938 48.777344 267.238281 48.261719 C 266.078125 47.023438 265.011719 45.742188 264.003906 44.449219 C 262.976562 43.195312 262.023438 41.910156 261.132812 40.589844 C 260.6875 39.933594 260.265625 39.257812 259.847656 38.589844 C 259.421875 37.9375 259.015625 37.277344 258.617188 36.605469 C 257.824219 35.273438 257.09375 33.902344 256.40625 32.5 C 256.128906 31.925781 255.851562 31.347656 255.570312 30.769531 C 255.300781 30.199219 255.046875 29.625 254.800781 29.050781 C 254.308594 27.902344 253.867188 26.746094 253.472656 25.574219 C 253.070312 24.402344 252.714844 23.21875 252.394531 22.027344 C 252.070312 20.851562 251.78125 19.664062 251.53125 18.449219 C 252.234375 18.535156 252.980469 18.660156 253.753906 18.839844 C 254.519531 19.035156 255.316406 19.28125 256.136719 19.5625 C 256.957031 19.839844 257.800781 20.164062 258.664062 20.519531 C 259.523438 20.882812 260.410156 21.257812 261.28125 21.726562 C 263.035156 22.640625 264.839844 23.6875 266.632812 24.828125 C 268.398438 26.035156 270.160156 27.335938 271.871094 28.695312 C 273.566406 30.089844 275.175781 31.605469 276.714844 33.105469 C 277.097656 33.488281 277.480469 33.851562 277.847656 34.25 C 278.199219 34.644531 278.558594 35.042969 278.914062 35.441406 C 279.613281 36.230469 280.285156 37.023438 280.929688 37.804688 C 281.5625 38.605469 282.195312 39.355469 282.746094 40.167969 C 283.300781 40.96875 283.824219 41.757812 284.308594 42.53125 C 284.789062 43.304688 285.238281 44.0625 285.644531 44.804688 C 285.84375 45.175781 286.039062 45.542969 286.21875 45.898438 C 286.394531 46.265625 286.554688 46.632812 286.707031 46.988281 C 287.734375 49.398438 288.332031 51.71875 288.371094 53.859375 C 288.398438 56.027344 287.859375 58.019531 286.695312 59.75 C 286.3125 60.3125 285.988281 60.960938 285.964844 61.710938 C 285.941406 62.457031 286.191406 63.242188 286.34375 64.007812 C 286.527344 64.957031 286.722656 65.878906 286.878906 66.835938 C 286.917969 67.070312 287 67.355469 286.984375 67.574219 C 286.683594 67.4375 286.367188 67.148438 286.074219 66.964844 L 285.121094 66.355469 C 284.929688 66.234375 284.367188 65.976562 284.253906 65.78125 C 284.1875 65.667969 284.234375 65.402344 284.234375 65.285156 C 284.234375 65.101562 284.234375 64.917969 284.234375 64.730469 C 284.238281 64.375 284.25 64.019531 284.246094 63.660156 C 284.242188 63.289062 284.226562 62.910156 284.171875 62.53125 C 284.066406 61.824219 283.105469 61.058594 282.453125 60.699219 " fill-opacity="1" fill-rule="nonzero"/></g><path fill="#ffffff" d="M 278.089844 65.6875 C 275.734375 66.5625 273.757812 68.046875 271.414062 68.824219 C 269.929688 69.308594 268.417969 69.777344 266.933594 70.160156 C 265.445312 70.542969 263.972656 70.855469 262.519531 71.085938 C 261.054688 71.332031 259.574219 71.550781 258.128906 71.667969 C 257.402344 71.726562 256.683594 71.765625 255.960938 71.789062 C 255.246094 71.804688 254.503906 71.855469 253.78125 71.851562 C 248.003906 71.816406 242.214844 70.894531 236.066406 69.011719 C 235.664062 68.886719 235.28125 68.695312 234.8125 68.503906 C 236.9375 67.085938 239.023438 65.777344 241.160156 64.480469 L 242.023438 63.953125 L 242.886719 63.457031 C 243.46875 63.128906 244.046875 62.804688 244.636719 62.484375 C 245.816406 61.84375 247.023438 61.214844 248.261719 60.621094 C 248.878906 60.328125 249.515625 60.023438 250.144531 59.765625 C 250.773438 59.5 251.410156 59.25 252.0625 59.007812 C 253.363281 58.527344 254.703125 58.089844 256.101562 57.710938 C 257.398438 57.347656 258.679688 57.144531 260.003906 57.007812 C 261.324219 56.871094 262.675781 56.835938 264.050781 56.90625 C 265.410156 57.007812 266.785156 57.242188 268.191406 57.578125 C 268.890625 57.75 269.597656 57.953125 270.3125 58.183594 C 271.011719 58.4375 271.710938 58.730469 272.421875 59.050781 C 274.09375 59.828125 275.863281 60.632812 277.195312 61.980469 C 277.570312 62.347656 277.910156 62.734375 278.207031 63.144531 C 278.445312 63.460938 278.6875 63.894531 279.128906 63.929688 C 279.554688 63.964844 279.941406 63.863281 280.347656 63.84375 C 280.53125 63.839844 280.707031 63.832031 280.886719 63.824219 C 280.933594 63.8125 282.363281 63.804688 282.398438 63.835938 L 283.414062 65.109375 C 283.386719 65.089844 282.359375 65.058594 282.328125 65.058594 L 281.925781 65.050781 C 281.628906 65.046875 281.339844 65.054688 281.054688 65.074219 C 280.484375 65.117188 279.933594 65.203125 279.375 65.320312 C 278.933594 65.417969 278.5 65.535156 278.089844 65.6875 " fill-opacity="1" fill-rule="nonzero"/></svg>